<?xml version="1.0" standalone="no"?>
<!DOCTYPE svg PUBLIC "-//W3C//DTD SVG 1.1//EN" "http://www.w3.org/Graphics/SVG/1.1/DTD/svg11.dtd" >
<svg xmlns="http://www.w3.org/2000/svg">
<metadata>Generated by IcoMoon</metadata>
<defs>
<font id="sgr-web" horiz-adv-x="1024">
<font-face units-per-em="1024" ascent="960" descent="-64" />
<missing-glyph horiz-adv-x="1024" />
<glyph unicode="&#x20;" horiz-adv-x="512" d="" />
<glyph unicode="&#xe900;" glyph-name="calendar" d="M682.667 448h-128c-23.467 0-42.667-19.2-42.667-42.667v-128c0-23.467 19.2-42.667 42.667-42.667h128c23.467 0 42.667 19.2 42.667 42.667v128c0 23.467-19.2 42.667-42.667 42.667zM682.667 874.667v-42.667h-341.333v42.667c0 23.467-19.2 42.667-42.667 42.667s-42.667-19.2-42.667-42.667v-42.667h-42.667c-47.36 0-84.907-38.4-84.907-85.333l-0.427-597.333c0-46.933 37.973-85.333 85.333-85.333h597.333c46.933 0 85.333 38.4 85.333 85.333v597.333c0 46.933-38.4 85.333-85.333 85.333h-42.667v42.667c0 23.467-19.2 42.667-42.667 42.667s-42.667-19.2-42.667-42.667zM768 149.333h-512c-23.467 0-42.667 19.2-42.667 42.667v426.667h597.333v-426.667c0-23.467-19.2-42.667-42.667-42.667z" />
<glyph unicode="&#xe901;" glyph-name="call" d="M279.040 746.667c2.56-37.973 8.96-75.093 19.2-110.507l-51.2-51.2c-17.493 51.2-28.587 105.387-32.427 161.707h64.427zM699.733 233.813c36.267-10.24 73.387-16.64 110.933-19.2v-63.573c-56.32 3.84-110.507 14.933-162.133 32l51.2 50.773zM320 832h-149.333c-23.467 0-42.667-19.2-42.667-42.667 0-400.64 324.693-725.333 725.333-725.333 23.467 0 42.667 19.2 42.667 42.667v148.907c0 23.467-19.2 42.667-42.667 42.667-52.907 0-104.533 8.533-152.32 24.32-4.267 1.707-8.96 2.133-13.227 2.133-11.093 0-21.76-4.267-30.293-12.373l-93.867-93.867c-120.747 61.867-219.733 160.427-281.173 281.173l93.867 93.867c11.947 11.947 15.36 28.587 10.667 43.52-15.787 47.787-24.32 98.987-24.32 152.32 0 23.467-19.2 42.667-42.667 42.667z" />
<glyph unicode="&#xe902;" glyph-name="check" d="M512 874.667c-235.52 0-426.667-191.147-426.667-426.667s191.147-426.667 426.667-426.667c235.52 0 426.667 191.147 426.667 426.667s-191.147 426.667-426.667 426.667zM512 106.667c-188.16 0-341.333 153.173-341.333 341.333s153.173 341.333 341.333 341.333c188.16 0 341.333-153.173 341.333-341.333s-153.173-341.333-341.333-341.333zM677.547 606.293l-250.88-250.88-80.213 80.213c-16.64 16.64-43.52 16.64-60.16 0s-16.64-43.52 0-60.16l110.507-110.507c16.64-16.64 43.52-16.64 60.16 0l281.173 281.173c16.64 16.64 16.64 43.52 0 60.16s-43.947 16.64-60.587 0z" />
<glyph unicode="&#xe903;" glyph-name="clean" d="M622.507 618.667l-110.507-110.507-110.507 110.507-60.16-60.16 110.507-110.507-110.507-110.507 60.16-60.16 110.507 110.507 110.507-110.507 60.16 60.16-110.507 110.507 110.507 110.507-60.16 60.16zM512 874.667c-235.947 0-426.667-190.72-426.667-426.667s190.72-426.667 426.667-426.667c235.947 0 426.667 190.72 426.667 426.667s-190.72 426.667-426.667 426.667zM512 106.667c-188.16 0-341.333 153.173-341.333 341.333s153.173 341.333 341.333 341.333c188.16 0 341.333-153.173 341.333-341.333s-153.173-341.333-341.333-341.333z" />
<glyph unicode="&#xe904;" glyph-name="close" d="M449.455 447.441l-265.815 265.826c-17.299 17.291-17.299 45.248 0 62.539 17.291 17.291 45.248 17.291 62.539 0l265.826-265.824 265.818 265.824c17.297 17.291 45.248 17.291 62.537 0 17.301-17.291 17.301-45.248 0-62.539l-265.818-265.826 265.818-265.826c17.301-17.289 17.301-45.244 0-62.537-8.614-8.627-19.947-12.958-31.27-12.958-11.319 0-22.643 4.331-31.266 12.958l-265.818 265.826-265.826-265.826c-8.625-8.627-19.948-12.958-31.27-12.958s-22.644 4.331-31.269 12.958c-17.299 17.293-17.299 45.248 0 62.537l265.815 265.826z" />
<glyph unicode="&#xe905;" glyph-name="comment" d="M170.667 789.333h682.667v-512h-632.747l-49.92-49.92v561.92zM170.667 874.667c-46.933 0-84.907-38.4-84.907-85.333l-0.427-768 170.667 170.667h597.333c46.933 0 85.333 38.4 85.333 85.333v512c0 46.933-38.4 85.333-85.333 85.333h-682.667zM256 448h512v-85.333h-512v85.333zM256 576h512v-85.333h-512v85.333zM256 704h512v-85.333h-512v85.333z" />
<glyph unicode="&#xe906;" glyph-name="share" d="M768 273.92c-32.427 0-61.44-12.8-83.627-32.853l-304.213 177.067c2.133 9.813 3.84 19.627 3.84 29.867s-1.707 20.053-3.84 29.867l300.8 175.36c23.040-21.333 53.333-34.56 87.040-34.56 70.827 0 128 57.173 128 128s-57.173 128-128 128c-70.827 0-128-57.173-128-128 0-10.24 1.707-20.053 3.84-29.867l-300.8-175.36c-23.040 21.333-53.333 34.56-87.040 34.56-70.827 0-128-57.173-128-128s57.173-128 128-128c33.707 0 64 13.227 87.040 34.56l303.787-177.493c-2.133-8.96-3.413-18.347-3.413-27.733 0-68.693 55.893-124.587 124.587-124.587s124.587 55.893 124.587 124.587c0 68.693-55.893 124.587-124.587 124.587z" />
<glyph unicode="&#xe907;" glyph-name="contact_mail" d="M938.667 832c46.933 0 85.333-38.4 85.333-85.333l-0.427-597.333c0-46.933-37.973-85.333-84.907-85.333h-853.333c-46.933 0-85.333 38.4-85.333 85.333v597.333c0 46.933 38.4 85.333 85.333 85.333h853.333zM896 618.667l-116.48-77.653c-6.827-4.693-16.213-4.693-23.467 0l-116.053 77.653v42.667l128-85.333 128 85.333v-42.667zM469.333 576c0 70.827-57.173 128-128 128s-128-57.173-128-128c0-70.827 57.173-128 128-128s128 57.173 128 128zM85.333 192h512v42.667c0 85.333-170.667 132.267-256 132.267s-256-46.933-256-132.267v-42.667zM618.667 448h298.667c11.947 0 21.333 9.387 21.333 21.333v213.333c0 11.947-9.387 21.333-21.333 21.333h-298.667c-11.947 0-21.333-9.387-21.333-21.333v-213.333c0-11.947 9.387-21.333 21.333-21.333z" />
<glyph unicode="&#xe908;" glyph-name="padlock" d="M768 618.667h-42.667v85.333c0 117.76-95.573 213.333-213.333 213.333s-213.333-95.573-213.333-213.333v-85.333h-42.667c-46.933 0-85.333-38.4-85.333-85.333v-426.667c0-46.933 38.4-85.333 85.333-85.333h512c46.933 0 85.333 38.4 85.333 85.333v426.667c0 46.933-38.4 85.333-85.333 85.333zM384 704c0 70.827 57.173 128 128 128s128-57.173 128-128v-85.333h-256v85.333zM768 106.667h-512v426.667h512v-426.667zM512 234.667c46.933 0 85.333 38.4 85.333 85.333s-38.4 85.333-85.333 85.333c-46.933 0-85.333-38.4-85.333-85.333s38.4-85.333 85.333-85.333z" />
<glyph unicode="&#xe909;" glyph-name="copy" d="M704 917.333v-85.333h-512v-597.333h-85.333v597.333c0 46.933 38.4 85.333 85.333 85.333h512zM832 746.667c46.933 0 85.333-38.4 85.333-85.333v-597.333c0-46.933-38.4-85.333-85.333-85.333h-469.333c-46.933 0-85.333 38.4-85.333 85.333v597.333c0 46.933 38.4 85.333 85.333 85.333h469.333zM362.667 64h469.333v597.333h-469.333v-597.333z" />
<glyph unicode="&#xe90a;" glyph-name="cuentas" d="M323.061 921.6c-88.093 0-159.849-71.756-159.849-159.849s71.756-159.849 159.849-159.849c88.093 0 159.849 71.756 159.849 159.849s-71.756 159.849-159.849 159.849zM323.061 662.543c-54.74 0-99.209 44.468-99.209 99.208s44.469 99.209 99.209 99.209c54.74 0 99.209-44.469 99.209-99.209s-44.469-99.208-99.209-99.208zM962.765 322.539l-46.012 13.67c-2.769 8.132-6.097 15.893-9.792 23.654l22.912 42.313c5.542 10.163 3.695 22.729-4.433 30.857l-52.847 52.847c-8.128 8.132-20.693 9.98-30.857 4.433l-42.317-22.912c-7.573 3.699-15.518 6.839-23.65 9.796l-13.675 46.007c-3.324 11.087-13.487 18.663-24.943 18.663h-74.65c-11.456 0-21.619-7.576-24.947-18.663l-13.67-46.007c-8.132-2.773-15.893-6.097-23.654-9.796l-3.695 2.035c-10.53 27.529-31.966 49.702-59.499 60.42-40.832 16.076-83.516 27.532-126.94 34-11.271 1.847-22.358-4.065-27.347-14.413l-60.052-123.246-59.868 123.061c-4.989 10.163-16.076 16.076-27.347 14.413-43.238-6.467-85.737-17.923-126.018-33.815-39.912-15.334-66.704-54.507-66.704-97.19v-211.388c0-14.413 11.641-26.052 26.054-26.052h377.501l36.399-10.901c2.773-8.132 6.097-15.893 9.792-23.65l-22.912-42.317c-5.542-10.163-3.695-22.724 4.437-30.857l52.847-52.847c8.128-8.128 20.693-9.975 30.857-4.433l42.313 22.912c7.578-3.695 15.522-6.835 23.65-9.792l13.675-46.012c3.328-11.085 13.491-18.662 24.947-18.662h74.65c11.456 0 21.619 7.578 24.943 18.662l13.675 46.012c8.128 2.769 15.889 6.097 23.65 9.792l42.313-22.912c10.163-5.542 22.729-3.695 30.861 4.433l52.847 52.847c8.128 8.132 9.975 20.693 4.433 30.857l-22.912 42.317c3.695 7.573 6.835 15.518 9.792 23.65l46.012 13.675c11.085 3.324 18.662 13.487 18.662 24.943v74.65c0.183 11.456-7.394 21.619-18.479 24.947zM436.89 322.351c-11.087-3.324-18.662-13.487-18.662-24.943v-50.261h-323.36v46.379h39.173c14.412 0 26.054 11.644 26.054 26.057s-11.641 26.052-26.054 26.052h-39.173v52.109h104.214c14.412 0 26.054 11.639 26.054 26.052s-11.641 26.052-26.054 26.052h-101.073c4.989 14.046 15.891 25.869 30.304 31.411 31.042 12.198 63.194 21.436 96.084 27.716l74.835-153.732c4.435-9.054 13.489-14.596 23.467-14.596s19.032 5.726 23.467 14.596l75.020 153.92c33.076-6.097 65.596-15.522 96.824-27.904 1.109-0.367 2.031-1.105 2.957-1.66l-46.75-46.75c-8.132-8.132-9.98-20.693-4.433-30.857l22.912-42.317c-3.695-7.573-6.839-15.518-9.796-23.65l-46.007-13.675zM929.318 242.342l-40.649-12.194c-8.499-2.586-15.151-9.425-17.553-17.924-3.883-13.67-9.242-26.978-16.077-39.172-4.433-7.761-4.433-17.37-0.183-25.131l20.139-37.325-25.314-25.314-37.325 20.143c-7.945 4.25-17.37 4.25-25.131-0.188-12.194-6.835-25.314-12.194-39.172-16.073-8.683-2.402-15.334-9.054-17.924-17.553l-12.194-40.653h-35.849l-12.194 40.653c-2.586 8.499-9.421 15.151-17.924 17.553-13.858 3.878-26.974 9.237-39.172 16.073-7.761 4.437-17.37 4.437-25.126 0.188l-37.325-20.143-25.318 25.314 20.143 37.325c4.25 7.949 4.25 17.37-0.183 25.131-6.839 12.194-12.198 25.314-16.077 39.172-2.402 8.687-9.054 15.339-17.741 17.924l-40.649 12.194v35.849l40.649 12.194c8.503 2.586 15.339 9.425 17.741 17.924 3.878 13.858 9.237 26.978 16.077 39.172 4.433 7.761 4.433 17.37 0.183 25.131l-20.143 37.325 25.318 25.314 37.325-20.143c7.945-4.25 17.365-4.25 25.126 0.188 12.198 6.835 25.314 12.194 39.172 16.073 8.687 2.402 15.339 9.058 17.924 17.557l12.194 40.649h35.849l12.194-40.649c2.59-8.499 9.425-15.155 17.924-17.557 13.858-3.878 26.978-9.237 39.172-16.073 7.761-4.437 17.37-4.437 25.131-0.188l37.325 20.143 25.314-25.314-20.139-37.325c-4.25-7.945-4.25-17.37 0.183-25.131 6.835-12.194 12.194-25.314 16.077-39.172 2.402-8.683 9.054-15.339 17.553-17.924l40.649-12.194v-35.849zM699.823 376.879c-64.256 0-116.612-52.356-116.612-116.612s52.356-116.612 116.612-116.612c64.256 0 116.612 52.356 116.612 116.612s-52.356 116.612-116.612 116.612zM699.823 204.48c-30.72 0-55.787 25.067-55.787 55.787s25.067 55.787 55.787 55.787c30.72 0 55.787-25.067 55.787-55.787s-25.067-55.787-55.787-55.787z" />
<glyph unicode="&#xe90b;" glyph-name="edit" d="M128 224v-160h160l471.893 471.893-160 160-471.893-471.893zM252.587 149.333h-39.253v39.253l386.56 386.56 39.253-39.253-386.56-386.56zM883.627 719.787l-99.84 99.84c-8.533 8.533-19.2 12.373-30.293 12.373s-21.76-4.267-29.867-12.373l-78.080-78.080 160-160 78.080 78.080c16.64 16.64 16.64 43.52 0 60.16z" />
<glyph unicode="&#xe90c;" glyph-name="eliminar" d="M256 149.333c0-46.933 38.4-85.333 85.333-85.333h341.333c46.933 0 85.333 38.4 85.333 85.333v426.667c0 46.933-38.4 85.333-85.333 85.333h-341.333c-46.933 0-85.333-38.4-85.333-85.333v-426.667zM384 576h256c23.467 0 42.667-19.2 42.667-42.667v-341.333c0-23.467-19.2-42.667-42.667-42.667h-256c-23.467 0-42.667 19.2-42.667 42.667v341.333c0 23.467 19.2 42.667 42.667 42.667zM661.333 789.333l-30.293 30.293c-7.68 7.68-18.773 12.373-29.867 12.373h-178.347c-11.093 0-22.187-4.693-29.867-12.373l-30.293-30.293h-106.667c-23.467 0-42.667-19.2-42.667-42.667s19.2-42.667 42.667-42.667h512c23.467 0 42.667 19.2 42.667 42.667s-19.2 42.667-42.667 42.667h-106.667z" />
<glyph unicode="&#xe90d;" glyph-name="entidad" d="M512 661.333h426.667v-597.333h-853.333v768h426.667v-170.667zM170.667 149.333h85.333v85.333h-85.333v-85.333zM256 320h-85.333v85.333h85.333v-85.333zM170.667 490.667h85.333v85.333h-85.333v-85.333zM256 661.333h-85.333v85.333h85.333v-85.333zM341.333 149.333h85.333v85.333h-85.333v-85.333zM426.667 320h-85.333v85.333h85.333v-85.333zM341.333 490.667h85.333v85.333h-85.333v-85.333zM426.667 661.333h-85.333v85.333h85.333v-85.333zM853.333 149.333v426.667h-341.333v-85.333h85.333v-85.333h-85.333v-85.333h85.333v-85.333h-85.333v-85.333h341.333zM768 490.667h-85.333v-85.333h85.333v85.333zM682.667 320h85.333v-85.333h-85.333v85.333z" />
<glyph unicode="&#xe90e;" horiz-adv-x="1126" d="M115.867 761.622c0-225.43-115.867-380.237-115.867-488.863 0-108.624 61.96-336.759 557.8-336.759s568.6 306.906 568.6 426.385c0.032 559.485-1010.533 798.473-1010.533 399.237z" />
<glyph unicode="&#xe90f;" horiz-adv-x="1126" d="M869.905 730.554c-3.364 2.434-7.745 2.925-11.558 1.294l-21.574-8.801-628.879-255.742-77.053-32.227 233.085-95.126 59.588-209.797 2.697-9.318c1.254-4.413 4.733-7.823 9.143-8.969 4.41-1.143 9.091 0.15 12.303 3.401l129.705 133.695 175.037-69.371c7.214-2.973 15.384-2.435 22.153 1.456 6.77 3.893 11.387 10.706 12.522 18.476l88.354 517.569c1.138 5.209-1.067 10.581-5.523 13.46zM492.989 284.556l0.386-0.13-0.643-0.777 0.258 0.906z" />
<glyph unicode="&#xe910;" horiz-adv-x="1126" d="M836.774 723.046l-628.879-255.742-77.053-32.227 233.085-95.128 59.588-209.797 115.321 118.813 27.866-11.001 10.66 11.001 162.968-64.584c4.431 3.91 7.342 9.276 8.218 15.143l88.354 517.569c0.41 1.968 0.367 4.004-0.128 5.953zM454.205 283.65l0.258 0.906 0.386-0.13-0.643-0.777z" />
<glyph unicode="&#xe911;" horiz-adv-x="1126" d="M577.37 248.965l-129.707-133.695c1.514 1.657 2.613 3.654 3.21 5.823l41.866 162.558 0.643 0.777 55.735-23.555 24.914-10.612 3.338-1.295z" />
<glyph unicode="&#xe912;" horiz-adv-x="1126" d="M870.863 729.854l-377.482-445.428-0.384 0.13-0.258-0.906-41.866-162.558c-0.597-2.169-1.7-4.166-3.21-5.823-3.214-3.251-7.893-4.547-12.303-3.401-4.408 1.143-7.888 4.555-9.143 8.967l-62.285 219.116v0.13h-0.126v0.128l507.057 389.647z" />
<glyph unicode="&#xe913;" horiz-adv-x="1126" d="M378.685 335.225l312.064 234.259c3.988 2.64 6.197 7.291 5.731 12.078-0.464 4.785-3.524 8.917-7.945 10.728s-9.474 1.004-13.119-2.099l-313.668-235.358-226.099 92.242c-6.562 2.621-13.993-0.584-16.64-7.178s0.483-14.104 7.009-16.817l227.305-92.694 60.616-213.267c3.156-11.015 13.177-18.586 24.554-18.546h0.295c6.202 0.113 12.145 2.522 16.695 6.77 0.447 0.271 0.877 0.573 1.283 0.905l124.131 127.925 166.434-66.512c10.696-4.579 22.897-3.889 33.017 1.864 10.429 5.83 17.58 16.212 19.354 28.099l42.006 283.129 46.232 233.755c1.923 9.385-1.427 19.075-8.719 25.223-7.183 6.035-17.072 7.603-25.747 4.091l-650.402-264.571c-6.579-2.679-9.755-10.228-7.096-16.858s10.15-9.83 16.727-7.151l621.329 252.663-308.212-366.35c-4.586-5.455-3.915-13.621 1.497-18.243s13.515-3.948 18.101 1.507l312.871 371.917-41.815-211.533-42.121-283.66c-0.579-3.968-2.949-7.444-6.422-9.409-3.328-1.874-7.339-2.060-10.825-0.505l-175.128 69.398-84.040 35.461c-6.538 2.767-14.065-0.333-16.811-6.924-0.28-0.886-0.461-1.802-0.538-2.731h-0.309l-41.725-162.376-59.87 210.768zM501.663 266.825l42.455-17.963 10.941-4.374-80.507-82.975 27.11 105.312z" />
<glyph unicode="&#xe914;" glyph-name="equalizer" d="M512 106.667c46.933 0 85.333 38.4 85.333 85.333v512c0 46.933-38.4 85.333-85.333 85.333s-85.333-38.4-85.333-85.333v-512c0-46.933 38.4-85.333 85.333-85.333zM256 106.667c46.933 0 85.333 38.4 85.333 85.333v170.667c0 46.933-38.4 85.333-85.333 85.333s-85.333-38.4-85.333-85.333v-170.667c0-46.933 38.4-85.333 85.333-85.333zM682.667 192v298.667c0 46.933 38.4 85.333 85.333 85.333s85.333-38.4 85.333-85.333v-298.667c0-46.933-38.4-85.333-85.333-85.333s-85.333 38.4-85.333 85.333z" />
<glyph unicode="&#xe915;" d="M512 940c265.101 0 491.998-226.898 491.998-492s-226.897-491.998-491.998-491.998c-94.32 0-194.016 27.601-268.219 74.598l-223.781-74.598 74.601 223.778c-47 74.197-74.601 173.901-74.601 268.22 0 265.102 226.898 492 492 492z" />
<glyph unicode="&#xe916;" d="M824 688c0-11.039 8.96-20 19.998-20 11.042 0 20.002 8.961 20.002 20s-8.96 20-20.002 20c-11.038 0-19.998-8.961-19.998-20z" />
<glyph unicode="&#xe917;" d="M904 448c0-25.617-2.573-51.187-7.633-75.998-2.21-10.82 4.774-21.385 15.595-23.595 1.348-0.282 2.692-0.414 4.023-0.414 9.301 0 17.638 6.537 19.575 16.009 5.602 27.443 8.439 55.701 8.439 83.998 0 62.976-13.658 123.579-40.602 180.126-4.749 9.969-16.678 14.203-26.658 9.453-9.975-4.75-14.204-16.687-9.451-26.664 24.358-51.125 36.71-105.938 36.71-162.915z" />
<glyph unicode="&#xe918;" d="M511.97 960c-275.951 0-511.998-235.601-511.998-512 0-94.413 27.055-194.82 72.672-270.767l-71.648-214.912c-2.391-7.181-0.523-15.108 4.836-20.463 5.383-5.38 13.32-7.219 20.469-4.826l214.914 71.637c75.938-45.623 176.344-72.67 270.756-72.67 276.023 0 512 235.631 512 512 0 276.023-235.622 512-512 512zM511.97-24c-90.569 0-186.834 26.726-257.514 71.492-5.008 3.17-11.25 4.006-17.031 2.078l-153.446-51.149c-13.342-4.45-26.036 8.243-21.588 21.585l51.151 153.446c1.906 5.705 1.141 11.955-2.078 17.033-44.766 70.673-71.492 166.946-71.492 257.515 0 255.852 216.149 472 471.998 472 255.855 0 472-216.148 472-472s-216.145-472-472-472z" />
<glyph unicode="&#xe919;" d="M589.628 404.706l132.454 133.241c20.557 20.681 20.557 54.361 0 75.337-20.561 20.681-54.042 20.681-74.893 0l-132.454-133.241-132.452 133.241c-20.558 20.681-54.039 20.681-74.891 0-20.558-20.681-20.558-54.361 0-75.337l132.454-133.241-132.454-133.244c-20.558-20.681-20.558-54.362 0-75.337 10.279-10.342 23.789-15.659 37.298-15.659s27.020 5.316 37.299 15.659l132.455 133.239 132.45-133.239c10.278-10.342 23.791-15.659 37.299-15.659s27.021 5.316 37.299 15.659c20.557 20.681 20.557 54.357 0 75.337l-131.866 133.244z" />
<glyph unicode="&#xe91a;" d="M629.862 630.715l-115.127-115.814-115.124 115.814c-30.25 30.43-79.296 30.43-109.545 0s-30.25-79.769 0-110.199l115.126-115.81-115.126-115.814c-30.25-30.43-30.25-79.77 0-110.199s79.296-30.43 109.545 0l115.124 115.814 115.127-115.814c14.686-14.771 34.069-22.75 54.921-22.75 68.429 0 103.671 83.908 54.626 132.949l-115.127 115.814 115.127 115.81c30.541 30.726 30.246 79.768 0 110.199-29.956 30.43-79.002 30.726-109.547 0zM704.751 555.378l-132.45-133.242c-9.694-9.749-9.694-25.408 0-34.863l132.45-133.244c5.286-5.316 8.226-12.702 8.226-20.087 0-25.408-30.839-38.114-48.461-20.092l-132.454 133.244c-9.395 9.455-24.96 9.749-34.654 0l-132.453-133.244c-10.866-11.226-29.075-11.226-40.235 0s-11.16 29.248 0 40.478l132.453 133.239c9.694 9.749 9.399 25.408 0 34.863l-132.453 133.243c-17.915 18.022-4.993 48.748 19.971 48.748 7.636 0 14.685-2.954 19.971-8.272l132.452-133.245c9.694-9.451 24.964-9.749 34.658 0l132.45 133.245c11.162 11.227 29.077 11.227 40.239 0 11.452-11.522 11.452-29.544 0.29-40.771z" />
<glyph unicode="&#xe91b;" glyph-name="estrella-filled" d="M862.537 499.686c28.471 24.708 13.257 71.495-24.299 74.734l-206.345 17.793-80.589 189.857c-14.716 34.671-63.859 34.658-78.558-0.021l-80.64-190.262-206.010-17.478c-37.608-3.191-52.857-50.051-24.33-74.763l156.527-135.599-47.001-201.472c-8.574-36.757 31.286-65.728 63.599-46.225l177.109 106.897 177.271-106.995c32.29-19.486 72.132 9.429 63.612 46.165l-46.75 201.63 156.403 135.74z" />
<glyph unicode="&#xe91c;" glyph-name="estrella-outlined" d="M862.537 499.686c28.471 24.708 13.257 71.495-24.299 74.734l-206.345 17.793-80.589 189.857c-14.716 34.671-63.859 34.658-78.558-0.021l-80.64-190.262-206.010-17.478c-37.608-3.191-52.857-50.051-24.33-74.763l156.527-135.599-47.001-201.472c-8.574-36.757 31.286-65.728 63.599-46.225l177.109 106.897 177.271-106.995c32.29-19.486 72.132 9.429 63.612 46.165l-46.75 201.63 156.403 135.74zM512 302.933l-160.427-96.853 42.667 182.613-141.653 122.88 186.88 16.213 72.533 171.947 72.96-172.373 186.88-16.213-141.653-122.88 42.667-182.613-160.853 97.28z" />
<glyph unicode="&#xe91d;" glyph-name="evaluacin" d="M331.413 477.538c4.387-4.386 10.138-6.579 15.889-6.579s11.503 2.193 15.889 6.579l89.887 89.886c8.777 8.776 8.777 23.003 0 31.779s-23.006 8.776-31.78 0l-73.996-73.994-29.054 29.053c-8.774 8.776-23.003 8.776-31.779 0s-8.776-23.002 0-31.779l44.944-44.945zM453.077 464.38c-8.777 8.777-23.006 8.777-31.781 0l-73.995-73.997-29.054 29.052c-8.774 8.777-23.003 8.777-31.779 0-8.776-8.772-8.776-23.002 0-31.778l44.943-44.941c4.388-4.39 10.139-6.583 15.89-6.583s11.503 2.193 15.889 6.579l89.887 89.886c8.777 8.777 8.777 23.006 0 31.782zM796.723 64.977c12.407 0 22.468 10.061 22.468 22.473v37.5c29.047 32.32 44.945 73.655 44.945 117.44v385.87c0 29.295-18.79 54.273-44.945 63.549v26.336c0 12.41-10.061 22.471-22.468 22.471-12.412 0-22.473-10.061-22.473-22.471v-26.336c-26.155-9.276-44.945-34.254-44.945-63.549v-385.87c0-43.785 15.898-85.12 44.945-117.44v-37.5c0-12.412 10.061-22.473 22.473-22.473zM796.723 168.964c-14.618 21.495-22.473 46.857-22.473 73.425v183.629h44.941v-183.629c0-26.569-7.855-51.925-22.468-73.425zM796.723 650.73c12.39 0 22.468-10.080 22.468-22.471v-157.3h-44.941v157.3c0 12.391 10.082 22.471 22.473 22.471zM394.971 271.445c-8.774 8.777-23.003 8.777-31.779 0l-15.889-15.893-15.889 15.893c-8.774 8.777-23.003 8.777-31.779 0s-8.776-23.006 0-31.782l15.889-15.889-15.889-15.889c-8.776-8.777-8.776-23.002 0-31.778 8.774-8.777 23.003-8.777 31.779 0l15.889 15.889 15.889-15.889c8.773-8.777 23.002-8.777 31.779 0s8.776 23.002 0 31.778l-15.889 15.889 15.889 15.889c8.777 8.777 8.777 23.006 0 31.782zM527.078 515.904c-12.412 0-22.473-10.061-22.473-22.473 0-12.407 10.061-22.473 22.473-22.473h44.941c12.412 0 22.473 10.065 22.473 22.473 0 12.412-10.061 22.473-22.473 22.473h-44.941zM572.006 381.073h-89.886c-12.412 0-22.473-10.061-22.473-22.468 0-12.412 10.061-22.473 22.473-22.473h89.886c12.407 0 22.468 10.061 22.468 22.473 0 12.407-10.061 22.468-22.468 22.468zM572.006 246.246h-89.886c-12.412 0-22.473-10.061-22.473-22.473s10.061-22.473 22.473-22.473h89.886c12.407 0 22.468 10.061 22.468 22.473s-10.061 22.473-22.468 22.473zM437.184 832c-12.409 0-22.47-10.061-22.47-22.471v-22.472h-22.472c-29.295 0-54.273-18.787-63.549-44.943h-116.222c-12.41 0-22.472-10.061-22.472-22.472v-632.193c0-12.412 10.061-22.473 22.472-22.473h449.429c12.407 0 22.468 10.061 22.468 22.473v632.193c0 12.41-10.061 22.472-22.468 22.472h-116.224c-9.276 26.155-34.253 44.943-63.548 44.943h-22.473v22.472c0 12.41-10.061 22.471-22.473 22.471zM639.428 109.918h-404.486v587.254h89.885v-22.471c0-12.41 10.061-22.472 22.472-22.472h179.77c12.412 0 22.473 10.061 22.473 22.472v22.471h89.886v-587.254zM504.597 719.643v-22.471h-134.826v22.471c0 12.391 10.081 22.472 22.471 22.472h89.887c12.39 0 22.468-10.081 22.468-22.472z" />
<glyph unicode="&#xe91e;" glyph-name="eyes-close" d="M512 704c161.707 0 305.92-90.88 376.32-234.666-25.173-52.053-60.587-96.853-102.827-133.12l60.16-60.16c59.307 52.48 106.24 118.187 135.68 193.28-73.813 187.306-256 320-469.333 320-54.187 0-106.24-8.533-155.307-24.32l70.4-70.4c27.733 5.547 55.893 9.387 84.907 9.387zM466.347 655.36l88.32-88.32c24.32-10.667 43.947-30.293 54.613-54.613l88.32-88.32c3.413 14.507 5.973 29.867 5.973 45.653 0.427 105.813-85.76 191.573-191.573 191.573-15.787 0-30.72-2.133-45.653-5.973zM85.76 794.88l114.347-114.347c-69.547-54.613-124.587-127.147-157.44-211.2 73.813-187.307 256-320 469.333-320 64.853 0 127.147 12.373 184.32 34.987l145.92-145.92 60.16 60.16-756.48 756.906-60.16-60.587zM405.76 474.88l111.36-111.36c-1.707-0.427-3.413-0.853-5.12-0.853-58.88 0-106.667 47.787-106.667 106.667 0 2.133 0.427 3.413 0.427 5.547zM260.693 619.946l74.667-74.667c-9.813-23.466-15.36-49.066-15.36-75.946 0-105.813 86.187-192 192-192 26.88 0 52.48 5.547 75.52 15.36l41.813-41.813c-37.547-10.24-76.8-16.213-117.333-16.213-161.707 0-305.92 90.88-376.32 234.667 29.867 61.013 73.387 111.36 125.013 150.613z" />
<glyph unicode="&#xe91f;" glyph-name="eyes-open" d="M512 704c161.707 0 305.92-90.88 376.32-234.667-70.4-143.787-214.613-234.667-376.32-234.667s-305.92 90.88-376.32 234.667c70.4 143.787 214.613 234.667 376.32 234.667zM512 789.333c-213.333 0-395.52-132.693-469.333-320 73.813-187.307 256-320 469.333-320s395.52 132.693 469.333 320c-73.813 187.307-256 320-469.333 320zM512 576c58.88 0 106.667-47.787 106.667-106.667s-47.787-106.667-106.667-106.667c-58.88 0-106.667 47.787-106.667 106.667s47.787 106.667 106.667 106.667zM512 661.333c-105.813 0-192-86.187-192-192s86.187-192 192-192c105.813 0 192 86.187 192 192s-86.187 192-192 192z" />
<glyph unicode="&#xe920;" glyph-name="folder" d="M451.84 764.16c-16.213 16.213-37.973 25.173-60.587 25.173h-220.587c-46.933 0-84.907-38.4-84.907-85.333l-0.427-512c0-46.933 38.4-85.333 85.333-85.333h682.667c46.933 0 85.333 38.4 85.333 85.333v426.667c0 46.933-38.4 85.333-85.333 85.333h-341.333l-60.16 60.16z" />
<glyph unicode="&#xe921;" glyph-name="folder_open" d="M512 704h341.333c46.933 0 85.333-38.4 85.333-85.333v-426.667c0-46.933-38.4-85.333-85.333-85.333h-682.667c-46.933 0-85.333 38.4-85.333 85.333l0.427 512c0 46.933 37.973 85.333 84.907 85.333h220.587c22.613 0 44.373-8.96 60.587-25.173l60.16-60.16zM170.667 234.667c0-23.467 19.2-42.667 42.667-42.667h597.333c23.467 0 42.667 19.2 42.667 42.667v341.333c0 23.467-19.2 42.667-42.667 42.667h-597.333c-23.467 0-42.667-19.2-42.667-42.667v-341.333z" />
<glyph unicode="&#xe922;" glyph-name="hora" d="M511.573 874.667c-235.52 0-426.24-191.147-426.24-426.667s190.72-426.667 426.24-426.667c235.947 0 427.093 191.147 427.093 426.667s-191.147 426.667-427.093 426.667zM512 106.667c-188.587 0-341.333 152.747-341.333 341.333s152.747 341.333 341.333 341.333c188.587 0 341.333-152.747 341.333-341.333s-152.747-341.333-341.333-341.333zM533.333 661.333h-64v-256l224-134.4 32 52.48-192 113.92v224z" />
<glyph unicode="&#xe923;" glyph-name="user-checked" d="M456.427 449.549c94.293 0 170.667 76.373 170.667 170.665 0 94.293-76.373 170.667-170.667 170.667s-170.667-76.373-170.667-170.667c0-94.291 76.373-170.665 170.667-170.665zM499.093 108.215l-36.693 36.693c-50.347 50.347-49.92 132.267 0.853 181.76l35.84 34.987c-16.64 1.707-29.013 2.56-42.667 2.56-113.92 0-341.333-57.173-341.333-170.667v-85.333h384zM616.853 117.602c16.64-16.64 43.947-16.64 60.587 0l219.307 221.013c16.213 16.213 16.213 42.667 0 59.307l-0.427 0.427c-16.64 16.64-43.52 16.64-60.16 0l-189.013-190.293-58.453 58.453c-16.213 16.64-43.093 16.64-59.733 0l-0.427-0.427c-16.213-16.213-16.213-42.667 0-59.307l88.32-89.173z" />
<glyph unicode="&#xe924;" glyph-name="configuration" d="M511.781 606.143c-88.261 0-160.066-71.805-160.066-160.067s71.805-160.066 160.066-160.066c88.261 0 160.066 71.804 160.066 160.066s-71.804 160.067-160.066 160.067zM511.781 350.036c-52.948 0-96.040 43.088-96.040 96.040s43.092 96.040 96.040 96.040c52.981 0 96.040-43.088 96.040-96.040s-43.088-96.040-96.040-96.040zM868.531 541.744l-91.012 14.661 54.422 72.35c9.538 12.709 8.353 30.444-2.787 41.745l-90.949 92.231c-11.268 11.461-29.195 12.774-41.969 3.17l-74.368-52.247-14.405 89.637c-2.498 15.527-15.879 26.924-31.598 26.924h-128.051c-15.945 0-29.455-11.716-31.696-27.468l-14.98-90.726-73.983 54.105c-12.774 9.348-30.348 8.004-41.521-3.17l-90.597-90.277c-11.332-11.268-12.582-29.165-2.978-41.937l53.046-74.241-89.637-12.804c-15.752-2.242-27.468-15.751-27.468-31.693v-128.055c0-15.941 11.716-29.451 27.468-31.627l91.014-14.665-54.423-72.349c-9.604-12.774-8.355-30.603 2.946-41.904l90.597-90.598c11.301-11.363 29.165-12.518 41.905-2.944l74.208 53.047 12.804-89.637c2.242-15.751 15.751-27.469 31.693-27.469h128.055c15.941 0 29.451 11.685 31.693 27.37l14.661 91.015 72.353-54.422c12.804-9.607 30.636-8.389 41.904 2.944l90.598 90.595c11.301 11.304 12.548 29.166 2.944 41.907l-53.881 74.112 93.162 10.884c16.135 1.854 28.299 15.525 28.299 31.788v128.055c0 15.941-11.717 29.451-27.469 31.693zM832.007 410.522l-65.339-7.621c-23.786-3.105-43.67-19.046-51.065-39.6-9.282-20.999-6.561-45.553 7.27-64.219l37.709-50.099-51.284-51.288-50.326 37.873c-18.534 13.7-43.088 16.424-62.011 7.874-22.535-8.163-38.477-28.043-41.585-51.474l-8.836-62.139h-72.539l-8.869 61.755c-3.105 23.782-19.050 43.666-39.57 51.028-20.966 9.282-45.458 6.627-64.251-7.234l-50.101-37.712-51.285 51.284 37.872 50.326c13.669 18.469 16.391 42.993 7.875 62.011-8.196 22.535-28.044 38.51-51.51 41.585l-62.137 8.836v72.543l61.785 8.865c23.786 3.105 43.667 19.050 51.030 39.57 9.316 20.999 6.594 45.491-7.203 64.251l-37.68 50.068 51.445 51.285 51.765-37.841c18.506-13.701 42.994-16.327 62.011-7.875 22.568 8.196 38.477 28.14 41.52 51.477l8.869 62.17h73.022l9.925-61.722c3.072-23.819 18.984-43.73 39.6-51.158 20.97-9.22 45.491-6.594 64.121 7.203l50.008 37.392 52.019-52.694-37.998-50.485c-13.67-18.473-16.391-42.994-7.874-62.040 8.196-22.572 28.138-38.48 51.474-41.523l62.139-8.869v-71.804h0.004z" />
<glyph unicode="&#xe925;" glyph-name="cambiar" d="M859.149 345.958c-11.823 5.308-25.271 5.7-37.389 1.092-12.113-4.604-21.901-13.837-27.209-25.66-23.974-53.453-62.618-99.012-111.45-131.379-48.828-32.367-105.835-50.223-164.403-51.486-58.573-1.263-116.297 14.114-166.476 44.348s-90.752 74.082-117.007 126.451l27.68-12.326c11.842-5.269 25.293-5.623 37.394-0.977s21.862 13.905 27.134 25.749c5.272 11.84 5.624 25.293 0.979 37.393s-13.908 21.862-25.749 27.136l-128.63 57.267c-5.863 2.611-12.183 4.041-18.6 4.207-6.416 0.171-12.802-0.93-18.794-3.23s-11.472-5.756-16.128-10.176c-4.656-4.416-8.396-9.707-11.006-15.573l-57.27-128.623c-5.272-11.844-5.624-25.293-0.979-37.397 4.646-12.1 13.908-21.858 25.749-27.132s25.293-5.623 37.394-0.981c12.102 4.646 21.862 13.909 27.134 25.749l6.532 14.673c33.912-67.452 85.901-124.151 150.164-163.772s138.273-60.604 213.767-60.608c2.364 0 4.736 0.026 7.104 0.064 77.35 1.335 152.721 24.674 217.293 67.277 64.572 42.607 115.678 102.72 147.337 173.308 5.308 11.827 5.7 25.276 1.092 37.393-4.608 12.113-13.837 21.905-25.664 27.213zM947.055 670.341c-11.844 5.272-25.293 5.624-37.397 0.979-12.1-4.646-21.858-13.907-27.132-25.749l-6.532-14.67c-34.462 68.551-87.586 125.975-153.25 165.662s-141.205 60.022-217.92 58.665c-76.715-1.357-151.485-24.352-215.705-66.336s-115.278-101.252-147.295-170.979c-2.689-5.833-4.202-12.138-4.453-18.556s0.766-12.822 2.992-18.847c2.226-6.025 5.618-11.552 9.981-16.265s9.613-8.52 15.449-11.202c5.836-2.683 12.143-4.189 18.56-4.433s12.821 0.78 18.844 3.013c6.022 2.233 11.545 5.63 16.253 9.999s8.509 9.622 11.185 15.461c24.346 53.028 63.181 98.097 112.028 130.014s105.716 49.382 164.059 50.383c58.342 1.001 115.78-14.504 165.692-44.726s90.27-73.934 116.42-126.096l-27.678 12.324c-11.831 5.192-25.233 5.49-37.282 0.829-12.045-4.661-21.76-13.903-27.012-25.704-5.257-11.801-5.623-25.203-1.024-37.275 4.595-12.070 13.786-21.833 25.562-27.149l128.486-57.199c5.867-2.637 12.194-4.083 18.624-4.267 6.426-0.183 12.826 0.905 18.833 3.196 6.007 2.295 11.503 5.756 16.171 10.176 4.668 4.425 8.418 9.724 11.034 15.599l57.267 128.624c5.274 11.841 5.628 25.291 0.986 37.392-4.646 12.102-13.905 21.862-25.745 27.136z" />
<glyph unicode="&#xe926;" glyph-name="virtual" d="M950.184 37.092h-120.003v267.273c0 30.073-24.469 54.542-54.542 54.542h-40.55c-10.687 46.62-31.958 86.644-62.292 116.713-19.088 18.925-41.286 33.387-65.904 43.116 52.764 45.523 87.198 124.221 87.198 195.325 0 64.524-17.948 115.166-53.346 150.513-32.023 31.978-76.539 48.88-128.745 48.88-52.204 0-96.724-16.902-128.746-48.88-35.398-35.347-53.347-85.989-53.347-150.513 0-71.102 34.435-149.802 87.196-195.325-24.615-9.729-46.811-24.191-65.902-43.116-30.333-30.068-51.604-70.097-62.287-116.713h-40.551c-30.076 0-54.546-24.469-54.546-54.542v-267.273h-120c-15.062 0-27.273-12.214-27.273-27.276s12.211-27.271 27.273-27.271h876.365c15.062 0 27.271 12.209 27.271 27.271s-12.209 27.276-27.271 27.276zM512 858.909c40.052 0 102.921-13.314 121.921-92.474-27.797 3.534-43.669 11.387-56.092 17.535-12.181 6.025-25.982 12.856-42.831 8.994-13.67-3.135-23.45-10.849-32.903-18.311-17.226-13.598-42.377-33.406-116.659-37.416 9.249 105.206 82.015 121.673 126.564 121.673zM387.2 682.713c92.632 4.878 127.23 32.182 148.692 49.125 3.109 2.454 7.107 5.609 9.584 7.12 2.188-0.923 5.423-2.522 8.164-3.878 16.026-7.929 41.188-20.372 85.839-24.024-0.717-40.158-15.644-84.698-40.318-119.791-25.176-35.814-56.948-56.356-87.161-56.356s-61.984 20.542-87.164 56.356c-18.972 26.987-32.209 59.571-37.636 91.447zM497.455 478.911h29.091c75.688 0 130.9-44.255 152.32-120.003h-333.731c21.422 75.748 76.633 120.003 152.32 120.003zM248.364 37.092v267.273h527.274v-267.273h-527.274z" />
<glyph unicode="&#xe927;" glyph-name="presencial" horiz-adv-x="1117" d="M607.325 106.989l-100.026-26.028c-32.982-8.583-67.227 12.684-76.337 47.402l-145.378 554.128c-9.109 34.722 10.313 69.952 43.295 78.535l367.702 95.688c32.982 8.583 66.458 5.533 75.567-29.188 4.561-17.389 0.405-3.942 17.427-2.649 34.853 2.649 50.060-6.391 45.498 10.998-18.218 69.443-89.046 100.974-155.010 83.808l-367.703-95.688c-65.965-17.166-104.809-87.628-86.591-157.070l145.379-554.127c18.218-69.441 86.707-111.974 152.671-94.808l100.026 26.033c16.519 4.296 26.21 21.876 21.648 39.266s-21.648 28.002-38.167 23.701zM539.587 92.872l-93.112-44.749c-30.702-14.755-68.42-0.461-84.080 31.86l-249.916 515.816c-15.659 32.321-3.421 70.62 27.281 85.375l342.283 164.493c30.701 14.755 64.14 18.189 79.798-14.131 7.843-16.187 1.159-3.791 17.613 0.747 33.685 9.291 50.358 3.341 42.515 19.528-31.32 64.642-106.924 81.982-168.327 52.473l-342.281-164.494c-61.404-29.51-85.881-106.108-54.562-170.75l249.916-515.816c31.319-64.642 106.756-93.226 168.161-63.716l93.11 44.749c15.379 7.387 21.485 26.498 13.642 42.687-7.843 16.184-26.666 23.319-42.040 15.928zM984.255 560.004c0 17.973-14.629 32.542-32.675 32.542h-336.542c-18.046 0-32.675-14.569-32.675-32.542s14.629-32.541 32.675-32.541h336.542c18.046 0 32.675 14.569 32.675 32.541zM984.255 399.458c0 17.971-14.629 32.54-32.675 32.54h-336.542c-18.046 0-32.675-14.569-32.675-32.54s14.629-32.54 32.675-32.54h336.542c18.046 0 32.675 14.569 32.675 32.54zM990.255 723.64c0 17.973-14.629 32.541-32.675 32.541h-336.542c-18.046 0-32.675-14.569-32.675-32.541s14.629-32.542 32.675-32.542h336.542c18.046 0 32.675 14.569 32.675 32.542zM691.791 115.247h-109.275c-36.035 0-65.35 29.198-65.35 65.085v572.73c0 35.887 29.314 65.083 65.35 65.083h401.706c36.035 0 65.35-29.197 65.35-65.083v-200.131c0-17.973 14.629-32.542 32.675-32.542s32.675 14.569 32.675 32.542v200.131c0 71.774-58.633 130.166-130.7 130.166h-401.706c-72.066 0-130.698-58.393-130.698-130.166v-572.73c0-71.773 58.632-130.169 130.698-130.169h109.275c18.046 0 32.675 14.569 32.675 32.545 0 17.971-14.629 32.54-32.675 32.54zM876.786 818.213l109.275-0.671c36.035-0.221 65.168-29.597 64.945-65.483l-3.547-572.719c-0.223-35.887-29.719-64.903-65.75-64.684l-401.701 2.472c-36.031 0.219-65.168 29.594-64.945 65.48l1.238 200.127c0.112 17.971-14.424 32.633-32.47 32.745-18.046 0.107-32.763-14.369-32.875-32.344l-1.239-200.127c-0.445-71.768 57.824-130.523 129.886-130.965l401.706-2.467c72.062-0.442 131.053 57.591 131.496 129.359l3.547 572.722c0.447 71.772-57.823 130.524-129.885 130.966l-109.275 0.671c-18.046 0.111-32.763-14.368-32.875-32.34s14.424-32.631 32.47-32.742zM951.58 258.453h-336.542c-18.046 0-32.675-14.569-32.675-32.54s14.629-32.54 32.675-32.54h336.542c18.046 0 32.675 14.569 32.675 32.54s-14.629 32.54-32.675 32.54z" />
<glyph unicode="&#xe928;" glyph-name="info" d="M512 874.667c-235.52 0-426.667-191.147-426.667-426.667s191.147-426.667 426.667-426.667c235.52 0 426.667 191.147 426.667 426.667s-191.147 426.667-426.667 426.667zM554.667 234.667h-85.333v256h85.333v-256zM554.667 576h-85.333v85.333h85.333v-85.333z" />
<glyph unicode="&#xe929;" glyph-name="info2" d="M469.333 661.333h85.333v-85.333h-85.333v85.333zM469.333 490.667h85.333v-256h-85.333v256zM512 874.667c-235.52 0-426.667-191.147-426.667-426.667s191.147-426.667 426.667-426.667c235.52 0 426.667 191.147 426.667 426.667s-191.147 426.667-426.667 426.667zM512 106.667c-188.16 0-341.333 153.173-341.333 341.333s153.173 341.333 341.333 341.333c188.16 0 341.333-153.173 341.333-341.333s-153.173-341.333-341.333-341.333z" />
<glyph unicode="&#xe92a;" glyph-name="file" d="M171.093 789.333c0 46.933 37.973 85.333 84.907 85.333h305.92c22.613 0 44.373-8.96 60.16-25.173l206.080-206.080c16.213-15.787 25.173-37.547 25.173-60.16v-476.587c0-46.933-38.4-85.333-85.333-85.333h-512.427c-46.933 0-84.907 38.4-84.907 85.333l0.427 682.667zM554.667 810.667v-192c0-23.467 19.2-42.667 42.667-42.667h192l-234.667 234.667z" />
<glyph unicode="&#xe92b;" glyph-name="investigacion" d="M749.581 320.845h-0.004c-11.977 11.853-31.266 11.093-42.342-1.22l-12.855-14.281-33.237 33.233c47.893 57.186 76.779 130.837 76.779 211.096 0 181.556-147.703 329.26-329.26 329.26-181.835 0-327.593-147.151-327.593-329.26 0-181.75 145.427-329.261 327.593-329.261 80.262 0 153.908 28.881 211.095 76.774l35.409-35.409-14.908-16.572c0 0 0-0.004-0.004-0.004-10.453-11.614-9.933-29.389 1.161-40.375v0l166.191-164.523c30.98-30.976 81.105-30.985 112.094 0v0c30.861 30.857 31.138 80.947-0.090 112.179l-0.017 0.013-170.010 168.35zM848.905 81.779l-0.017 0.013-146.462 144.998 27.78 30.861 148.1-146.645c0-0.004 0.004-0.004 0.004-0.009 8.077-8.081 8.073-21.227-0.004-29.303-8.017-8.017-21.077-8.243-29.402 0.085zM139.6 549.673c0 149.303 120.724 270.727 269.060 270.727 149.279 0 270.726-121.449 270.726-270.727 0-149.276-121.446-270.727-270.726-270.727-148.335 0-269.060 121.425-269.060 270.727zM183.533 564.672l0.002 0.003c2.057 3.441 26.822 44.32 66.641 84.392 39.695 39.946 95.12 79.867 158.485 79.867 63.364 0 118.792-39.921 158.485-79.867 39.812-40.066 64.576-80.939 66.637-84.393 5.517-9.238 5.517-20.762 0-30l-450.251 29.998zM183.533 564.672c-5.51-9.237-5.51-20.759 0-29.997l0.002-0.003M183.533 564.672l0.002-30M183.535 534.671c2.057-3.441 26.822-44.32 66.641-84.393M183.535 534.671l66.641-84.393M250.176 450.278c39.695-39.945 95.12-79.863 158.485-79.863M250.176 450.278l158.485-79.863M408.662 370.415c63.364 0 118.792 39.919 158.485 79.863M408.662 370.415l158.485 79.863M567.147 450.278c39.812 40.068 64.576 80.939 66.637 84.394l-66.637-84.394zM408.662 428.941c-37.083 0-72.777 21.833-102.481 48.593-28.242 25.446-50.462 54.793-62.515 72.161 18.454 26.639 43.402 56.448 71.663 79.794 29.194 24.117 61.408 40.917 93.332 40.917 37.077 0 72.768-21.83 102.468-48.589 28.241-25.443 50.462-54.793 62.524-72.172-18.449-26.637-43.396-56.444-71.659-79.787-29.193-24.119-61.41-40.917-93.333-40.917zM408.661 628.94c-43.71 0-79.267-35.556-79.267-79.267s35.556-79.264 79.267-79.264c43.712 0 79.266 35.554 79.266 79.264s-35.554 79.267-79.266 79.267zM408.661 528.939c-11.426 0-20.733 9.308-20.733 20.734s9.307 20.733 20.733 20.733c11.426 0 20.732-9.307 20.732-20.733s-9.306-20.734-20.732-20.734z" />
<glyph unicode="&#xe92c;" glyph-name="language" d="M0 448c0 282.624 228.864 512 511.488 512 283.136 0 512.512-229.376 512.512-512s-229.376-512-512.512-512c-282.624 0-511.488 229.376-511.488 512zM715.264 652.8h151.040c-49.152 84.48-127.488 150.016-221.696 182.272 30.72-56.832 54.272-118.272 70.656-182.272zM512 855.552c42.496-61.44 75.776-129.536 97.792-202.752h-195.584c22.016 73.216 55.296 141.312 97.792 202.752zM102.4 448c0-35.328 5.12-69.632 13.312-102.4h173.056c-4.096 33.792-7.168 67.584-7.168 102.4s3.072 68.608 7.168 102.4h-173.056c-8.192-32.768-13.312-67.072-13.312-102.4zM157.696 243.2h151.040c16.384-64 39.936-125.44 70.656-182.272-94.208 32.256-172.544 97.28-221.696 182.272zM157.696 652.8h151.040c16.384 64 39.936 125.44 70.656 182.272-94.208-32.256-172.544-97.28-221.696-182.272zM512 40.448c-42.496 61.44-75.776 129.536-97.792 202.752h195.584c-22.016-73.216-55.296-141.312-97.792-202.752zM384 448c0-34.816 3.584-68.608 8.192-102.4h239.616c4.608 33.792 8.192 67.584 8.192 102.4s-3.584 69.12-8.192 102.4h-239.616c-4.608-33.28-8.192-67.584-8.192-102.4zM644.608 60.928c30.72 56.832 54.272 118.272 70.656 182.272h151.040c-49.152-84.48-127.488-150.016-221.696-182.272zM742.4 448c0-34.816-3.072-68.608-7.168-102.4h173.056c8.192 32.768 13.312 67.072 13.312 102.4s-5.12 69.632-13.312 102.4h-173.056c4.096-33.792 7.168-67.584 7.168-102.4z" />
<glyph unicode="&#xe92d;" glyph-name="location" d="M512 874.667c-165.12 0-298.667-133.547-298.667-298.667 0-224 298.667-554.667 298.667-554.667s298.667 330.667 298.667 554.667c0 165.12-133.547 298.667-298.667 298.667zM298.667 576c0 117.76 95.573 213.333 213.333 213.333s213.333-95.573 213.333-213.333c0-122.88-122.88-306.773-213.333-421.547-88.747 113.92-213.333 299.947-213.333 421.547zM512 469.333c58.91 0 106.667 47.757 106.667 106.667s-47.757 106.667-106.667 106.667c-58.91 0-106.667-47.756-106.667-106.667s47.757-106.667 106.667-106.667z" />
<glyph unicode="&#xe92e;" glyph-name="logout" d="M890.999 420.745l-0.009-0.004-193.907-191.356c-15.031-14.878-39.305-14.669-54.153 0.371-14.857 15.049-14.707 39.287 0.375 54.148l247.693 136.841zM890.999 420.745c7.296 7.223 11.401 16.99 11.401 27.255 0 10.27-4.139 20.070-11.405 27.255l-0.004 0.009-193.907 191.355c-7.437 7.363-17.178 11.037-26.889 11.037-9.886 0-19.767-3.834-27.26-11.402l-0.013-0.012c-14.81-15.041-14.703-39.282 0.393-54.148l127.471-125.802h-355.743c-21.172 0-38.293-17.122-38.293-38.293s17.121-38.293 38.293-38.293h355.743l-127.471-125.798 247.684 136.836zM223.68 760.533h287.044c21.171 0 38.293 17.121 38.293 38.293s-17.122 38.293-38.293 38.293h-287.044c-56.287 0-102.080-45.794-102.080-102.080v-574.087c0-56.286 45.794-102.080 102.080-102.080h287.044c21.171 0 38.293 17.122 38.293 38.293s-17.122 38.293-38.293 38.293h-287.044c-14.069 0-25.493 11.422-25.493 25.493v574.088c0 14.070 11.422 25.493 25.493 25.493z" />
<glyph unicode="&#xe92f;" glyph-name="mail" d="M853.333 789.333h-682.667c-46.933 0-84.907-38.4-84.907-85.333l-0.427-512c0-46.933 38.4-85.333 85.333-85.333h682.667c46.933 0 85.333 38.4 85.333 85.333v512c0 46.933-38.4 85.333-85.333 85.333zM810.667 192h-597.333c-23.467 0-42.667 19.2-42.667 42.667v384l296.107-185.173c27.733-17.493 62.72-17.493 90.453 0l296.107 185.173v-384c0-23.467-19.2-42.667-42.667-42.667zM512 490.667l-341.333 213.333h682.667l-341.333-213.333z" />
<glyph unicode="&#xe930;" glyph-name="mas_rounded" d="M512 874.667c235.52 0 426.667-191.147 426.667-426.667s-191.147-426.667-426.667-426.667c-235.52 0-426.667 191.147-426.667 426.667s191.147 426.667 426.667 426.667zM512 661.333c23.467 0 42.667-19.2 42.667-42.667v-128h128c23.467 0 42.667-19.2 42.667-42.667s-19.2-42.667-42.667-42.667h-128v-128c0-23.467-19.2-42.667-42.667-42.667s-42.667 19.2-42.667 42.667v128h-128c-23.467 0-42.667 19.2-42.667 42.667s19.2 42.667 42.667 42.667h128v128c0 23.467 19.2 42.667 42.667 42.667zM170.667 448c0-188.16 153.173-341.333 341.333-341.333s341.333 153.173 341.333 341.333c0 188.16-153.173 341.333-341.333 341.333s-341.333-153.173-341.333-341.333z" />
<glyph unicode="&#xe931;" glyph-name="menu" d="M208.455 704h607.086c27.94 0 50.59-22.65 50.59-50.59v0c0-27.94-22.65-50.59-50.59-50.59h-607.086c-27.94 0-50.59 22.65-50.59 50.59v0c0 27.94 22.65 50.59 50.59 50.59zM208.455 501.636h607.086c27.94 0 50.59-22.65 50.59-50.59v0c0-27.94-22.65-50.59-50.59-50.59h-607.086c-27.94 0-50.59 22.65-50.59 50.59v0c0 27.94 22.65 50.59 50.59 50.59zM208.455 299.277h607.086c27.94 0 50.59-22.65 50.59-50.59v0c0-27.94-22.65-50.59-50.59-50.59h-607.086c-27.94 0-50.59 22.65-50.59 50.59v0c0 27.94 22.65 50.59 50.59 50.59z" />
<glyph unicode="&#xe932;" glyph-name="microphone" d="M512 320c70.827 0 127.573 57.173 127.573 128l0.427 256c0 70.827-57.173 128-128 128s-128.001-57.173-128.001-128v-256c0-70.827 57.174-128 128.001-128zM771.413 448c-17.92 0-32.853-12.8-35.413-30.293-15.787-111.36-116.053-187.307-224-187.307s-208.214 75.52-224.001 187.307c-2.56 17.493-17.92 30.293-35.413 30.293-22.187 0-39.253-19.627-36.267-41.387 19.627-126.72 126.293-226.133 253.014-245.333v-97.28c0-23.467 19.2-42.667 42.667-42.667s42.667 19.2 42.667 42.667v97.28c126.293 18.347 233.387 118.613 253.013 245.333 2.987 21.76-14.080 41.387-36.267 41.387z" />
<glyph unicode="&#xe933;" glyph-name="more" d="M256 533.333c-46.933 0-85.333-38.4-85.333-85.333s38.4-85.333 85.333-85.333c46.933 0 85.333 38.4 85.333 85.333s-38.4 85.333-85.333 85.333zM768 533.333c-46.933 0-85.333-38.4-85.333-85.333s38.4-85.333 85.333-85.333c46.933 0 85.333 38.4 85.333 85.333s-38.4 85.333-85.333 85.333zM512 533.333c-46.933 0-85.333-38.4-85.333-85.333s38.4-85.333 85.333-85.333c46.933 0 85.333 38.4 85.333 85.333s-38.4 85.333-85.333 85.333z" />
<glyph unicode="&#xe934;" glyph-name="move" d="M507.998 310.153c-77.107 0-139.843 62.733-139.843 139.844s62.735 139.846 139.843 139.846c77.111 0 139.849-62.735 139.849-139.846s-62.737-139.844-139.849-139.844zM507.998 509.931c-33.045 0-59.93-26.884-59.93-59.934 0-33.045 26.884-59.934 59.93-59.934 33.050 0 59.934 26.889 59.934 59.934 0 33.050-26.884 59.934-59.934 59.934zM691.797 117.798c15.603 15.603 15.603 40.9 0 56.508-15.603 15.603-40.905 15.603-56.508-0.004l-125.291-125.291-119.299 119.3c-15.604 15.603-40.902 15.603-56.506 0s-15.604-40.905 0-56.508l160.722-160.717c8.329-8.333 21.837-8.333 30.17 0l166.711 166.711zM691.793 721.696c15.607 15.604 15.607 40.904 0.004 56.508l-166.716 166.712c-8.329 8.331-21.837 8.331-30.17 0l-162.716-162.717c-15.604-15.604-15.604-40.903 0-56.506s40.902-15.603 56.506 0l121.297 121.297 125.291-125.292c15.603-15.604 40.9-15.604 56.503-0.001z" />
<glyph unicode="&#xe935;" glyph-name="next" d="M304.107 63.573c20.907-20.907 54.613-20.907 75.52 0l354.56 354.56c16.64 16.64 16.64 43.52 0 60.16l-354.56 354.56c-20.907 20.907-54.613 20.907-75.52 0s-20.907-54.613 0-75.52l308.907-309.333-309.333-309.333c-20.48-20.48-20.48-54.613 0.427-75.093z" />
<glyph unicode="&#xe936;" glyph-name="notification" d="M823.044 222.293l-55.040 55.040v213.333c0 130.987-69.973 240.64-192 269.653v29.013c0 35.413-28.587 64-64 64s-64-28.587-64-64v-29.013c-122.455-29.013-192.002-138.24-192.002-269.653v-213.333l-55.040-55.040c-26.88-26.88-8.107-72.96 29.867-72.96h561.922c38.4 0 57.173 46.080 30.293 72.96zM682.671 234.667h-341.335v256c0 105.813 64.427 192 170.669 192 106.24 0 170.667-86.187 170.667-192v-256zM512.004 21.333c46.933 0 85.333 38.4 85.333 85.333h-170.667c0-46.933 37.973-85.333 85.333-85.333z" />
<glyph unicode="&#xe937;" glyph-name="observacion" horiz-adv-x="939" d="M91.548 9.89c-12.685 0-22.996 10.308-22.996 22.976v707.826c0 12.669 10.31 22.975 22.996 22.975h491.837c12.685 0 22.997-10.304 22.997-22.975v-306.039c21.862 7.279 44.783 12.113 68.553 14.161v291.878c0 50.477-41.067 91.528-91.55 91.528h-387.171v36.252c0 12.671 10.308 22.975 22.993 22.975h491.84c12.685 0 22.997-10.304 22.997-22.975v-420.28c23.829-2.645 46.729-8.303 68.548-16.218v436.498c0 50.475-41.067 91.528-91.546 91.528h-491.84c-50.479 0-91.546-41.053-91.546-91.528v-36.252h-36.114c-50.479 0-91.548-41.053-91.548-91.528v-707.826c0-50.475 41.069-91.529 91.548-91.529h394.502c-19.746 20.297-36.651 43.332-50.078 68.553h-344.424zM208.123 565.097h197.824c18.949 0 34.275 15.348 34.275 34.274 0 18.93-15.326 34.276-34.275 34.276h-197.824c-18.938 0-34.266-15.348-34.266-34.276 0-18.926 15.325-34.274 34.266-34.274zM501.107 447.189c0 18.927-15.326 34.274-34.278 34.274h-258.706c-18.938 0-34.266-15.347-34.266-34.274 0-18.931 15.325-34.278 34.266-34.278h258.706c18.953 0 34.278 15.347 34.278 34.278zM460.843 329.331h-252.72c-18.938 0-34.266-15.347-34.266-34.274 0-18.931 15.325-34.278 34.266-34.278h214.193c9.804 24.657 22.86 47.616 38.527 68.553zM208.123 177.182c-18.938 0-34.266-15.347-34.266-34.274s15.325-34.278 34.266-34.278h196.018c-1.877 13.623-3.211 27.452-3.211 41.596 0 9.105 0.567 18.061 1.374 26.957h-194.181zM700.838 221.035c-58.842 0-110.929-48.755-131.477-70.81 20.548-22.046 72.636-70.784 131.477-70.784 59.081 0 111.023 48.721 131.482 70.763-20.523 22.042-72.602 70.831-131.482 70.831zM700.838 98.807c-28.382 0-51.409 23.027-51.409 51.418 0 28.412 23.027 51.409 51.409 51.409s51.409-22.997 51.409-51.409c0-28.39-23.027-51.418-51.409-51.418zM700.843 364.446c-118.323 0-214.225-95.902-214.225-214.221 0-118.298 95.902-214.225 214.225-214.225 118.319 0 214.221 95.927 214.221 214.225 0 118.323-95.902 214.221-214.221 214.221zM700.843 45.171c-92.45 0-164.689 90.607-167.731 94.46-4.851 6.225-4.851 14.959 0 21.167 3.046 3.866 75.285 94.511 167.731 94.511 92.442 0 164.681-90.645 167.727-94.511 4.851-6.208 4.851-14.946 0-21.167-3.046-3.853-75.285-94.46-167.727-94.46z" />
<glyph unicode="&#xe938;" glyph-name="pdf" d="M336.701 325.658c0 14.174-9.834 22.622-27.184 22.622-7.085 0-11.883-0.695-14.393-1.365v-45.47c2.972-0.67 6.625-0.892 11.66-0.892 18.493 0 29.917 9.344 29.917 25.105zM444.113 347.802c-7.77 0-12.787-0.67-15.757-1.365v-100.702c2.97-0.695 7.77-0.695 12.105-0.695 31.522-0.222 52.079 17.126 52.079 53.892 0.222 31.97-18.509 48.87-48.427 48.87zM643.661 874.667h-342.735c-50.070 0-90.822-40.78-90.822-90.822v-335.845h-8.871c-20.209 0-36.598-16.371-36.598-36.599v-221.948c0-20.224 16.387-36.599 36.598-36.599h8.871v-40.695c0-50.099 40.751-90.825 90.822-90.825h467.646c50.035 0 90.795 40.73 90.795 90.825v547.558l-215.706 214.951zM260.646 371.349c10.726 1.809 25.801 3.179 47.042 3.179 21.465 0 36.764-4.1 47.044-12.331 9.819-7.753 16.446-20.557 16.446-35.622 0-15.061-5.021-27.866-14.158-36.54-11.883-11.183-29.456-16.205-50.013-16.205-4.575 0-8.676 0.226-11.883 0.67v-55.036h-34.478v151.885zM768.572 76.954h-467.646c-19.387 0-35.175 15.791-35.175 35.204v40.695h435.941c20.211 0 36.599 16.375 36.599 36.599v221.948c0 20.228-16.388 36.599-36.599 36.599h-435.941v335.845c0 19.359 15.789 35.146 35.175 35.146l321.927 0.336v-118.995c0-34.757 28.198-62.985 62.985-62.985l116.565 0.335 1.314-525.524c0-19.413-15.761-35.204-35.145-35.204zM393.409 220.16v151.189c12.787 2.035 29.455 3.179 47.043 3.179 29.231 0 48.188-5.244 63.040-16.431 15.983-11.883 26.027-30.822 26.027-58.018 0-29.457-10.726-49.792-25.583-62.34-16.205-13.474-40.875-19.861-71.014-19.861-18.051 0-30.838 1.143-39.512 2.283zM642.658 309.675v-28.314h-55.275v-61.897h-34.935v153.92h94.084v-28.535h-59.149v-35.174h55.275z" />
<glyph unicode="&#xe939;" glyph-name="perfiles" d="M384 373.333c-99.84 0-298.667-49.92-298.667-149.333v-74.667h597.333v74.667c0 99.413-198.827 149.333-298.667 149.333zM185.173 234.667c35.84 24.747 122.453 53.333 198.827 53.333s162.987-28.587 198.827-53.333h-397.653zM384 448c82.347 0 149.333 66.987 149.333 149.333s-66.987 149.333-149.333 149.333c-82.347 0-149.333-66.987-149.333-149.333s66.987-149.333 149.333-149.333zM384 661.333c35.413 0 64-28.587 64-64s-28.587-64-64-64c-35.413 0-64 28.587-64 64s28.587 64 64 64zM684.373 370.773c49.493-35.84 83.627-83.627 83.627-146.773v-74.667h170.667v74.667c0 86.187-149.333 135.253-254.293 146.773zM640 448c82.347 0 149.333 66.987 149.333 149.333s-66.987 149.333-149.333 149.333c-23.040 0-44.373-5.547-64-14.933 26.88-37.973 42.667-84.48 42.667-134.4s-15.787-96.427-42.667-134.4c19.627-9.387 40.96-14.933 64-14.933z" />
<glyph unicode="&#xe93a;" glyph-name="print" d="M298.667 832h426.667c23.467 0 42.667-19.2 42.667-42.667v-85.333c0-23.467-19.2-42.667-42.667-42.667h-426.667c-23.467 0-42.667 19.2-42.667 42.667v85.333c0 23.467 19.2 42.667 42.667 42.667zM213.333 618.667h597.333c70.827 0 128-57.173 128-128v-170.667c0-46.933-38.4-85.333-85.333-85.333h-85.333v-85.333c0-46.933-38.4-85.333-85.333-85.333h-341.333c-46.933 0-85.333 38.4-85.333 85.333v85.333h-85.333c-46.933 0-85.333 38.4-85.333 85.333v170.667c0 70.827 57.173 128 128 128zM384 149.333h256c23.467 0 42.667 19.2 42.667 42.667v170.667h-341.333v-170.667c0-23.467 19.2-42.667 42.667-42.667zM810.667 448c-23.467 0-42.667 19.2-42.667 42.667s19.2 42.667 42.667 42.667c23.467 0 42.667-19.2 42.667-42.667s-19.2-42.667-42.667-42.667z" />
<glyph unicode="&#xe93b;" glyph-name="puesto" d="M913.668 739.555h-222.4v19.911c0 42.484-35.695 76.8-79.266 76.8h-200.002c-43.575 0-79.267-34.316-79.267-76.8v-19.911h-222.4c-16.177 0-29.267-12.844-29.267-28.444v-531.911c0-42.483 35.692-76.8 79.267-76.8h703.334c43.575 0 79.266 34.317 79.266 76.8v531.496h0.009l-0.017 0.256c-0.529 8.811-3.639 16.025-8.93 21.051-5.265 5.004-12.314 7.48-20.070 7.545l-0.085 0.003v0.003h-0.171zM151.005 682.667h721.99l-75.686-219.588c-2.786-8.098-10.645-13.658-19.678-13.658h-136.363v19.913c0 15.842-13.239 28.446-29.265 28.446h-200.002c-16.029 0-29.267-12.604-29.267-28.446v-19.913h-136.365c-9.030 0-16.889 5.559-19.677 13.658v0l-75.687 219.588zM391.267 759.467c0 10.839 9.172 19.911 20.733 19.911h200.002c11.558 0 20.732-9.072 20.732-19.911v-19.911h-241.467v19.911zM582.733 440.887v-39.821h-141.466v39.821h141.466zM884.399 179.2c0-10.842-9.169-19.913-20.732-19.913h-703.334c-11.562 0-20.733 9.071-20.733 19.913v357.45l31.588-91.645c10.839-31.458 41.104-52.471 75.18-52.471h136.365v-19.913c0-15.842 13.237-28.442 29.267-28.442h200.002c16.026 0 29.265 12.599 29.265 28.442v19.913h136.363c34.078 0 64.341 21.013 75.183 52.471l31.586 91.645v-357.45z" />
<glyph unicode="&#xe93c;" glyph-name="remove_circle_outline" d="M512 874.667c235.52 0 426.667-191.147 426.667-426.667s-191.147-426.667-426.667-426.667c-235.52 0-426.667 191.147-426.667 426.667s191.147 426.667 426.667 426.667zM298.667 448c0 23.467 19.2 42.667 42.667 42.667h341.333c23.467 0 42.667-19.2 42.667-42.667s-19.2-42.667-42.667-42.667h-341.333c-23.467 0-42.667 19.2-42.667 42.667zM170.667 448c0-188.16 153.173-341.333 341.333-341.333s341.333 153.173 341.333 341.333c0 188.16-153.173 341.333-341.333 341.333s-341.333-153.173-341.333-341.333z" />
<glyph unicode="&#xe93d;" glyph-name="subir" d="M213.333 789.333v-85.333h597.333v85.333h-597.333zM213.333 362.667h170.667v-256h256v256h170.667l-298.667 298.667-298.667-298.667z" />
<glyph unicode="&#xe93e;" glyph-name="swap" d="M249.859 697.814l119.040 119.040c8.107 8.107 21.76 8.107 29.867 0l119.042-119.040c13.653-13.227 4.267-36.267-14.933-36.267h-76.375v-256.427c0-23.467-19.2-42.667-42.667-42.667s-42.667 19.2-42.667 42.667v256.427h-76.373c-19.2 0-28.587 23.040-14.933 36.267zM682.5 490.453v-256.427h76.8c18.773 0 28.587-23.040 14.933-36.267l-119.040-118.613c-8.533-8.107-21.76-8.107-30.293 0l-119.040 118.613c-13.653 13.227-4.267 36.267 14.933 36.267h76.373v256.427c0 23.467 19.2 42.667 42.667 42.667s42.667-19.2 42.667-42.667z" />
<glyph unicode="&#xe93f;" glyph-name="tabla" d="M853.333 874.667h-682.667c-46.933 0-85.333-38.4-85.333-85.333v-682.667c0-46.933 38.4-85.333 85.333-85.333h682.667c46.933 0 85.333 38.4 85.333 85.333v682.667c0 46.933-38.4 85.333-85.333 85.333zM341.333 106.667h-170.667v170.667h170.667v-170.667zM341.333 362.667h-170.667v170.667h170.667v-170.667zM341.333 618.667h-170.667v170.667h170.667v-170.667zM597.333 106.667h-170.667v170.667h170.667v-170.667zM597.333 362.667h-170.667v170.667h170.667v-170.667zM597.333 618.667h-170.667v170.667h170.667v-170.667zM853.333 106.667h-170.667v170.667h170.667v-170.667zM853.333 362.667h-170.667v170.667h170.667v-170.667zM853.333 618.667h-170.667v170.667h170.667v-170.667z" />
<glyph unicode="&#xe940;" glyph-name="time" d="M533.999 662v-224.001l192-113.997-32-54.003-224 136v256.001h64zM270 205.999c68-66.667 148.667-99.998 242-99.998s173.333 33.331 240 99.998c68.002 68.002 101.999 148.668 101.999 242.001s-33.997 173.333-101.999 240c-66.667 68-146.667 102-240 102s-174-34-242-102c-66.667-66.667-100-146.667-100-240s33.333-173.999 100-242.001zM210 748c84 84 184.666 126 302 126s217.335-42 299.998-126c84.002-82.667 126.003-182.667 126.003-300s-42.001-218.001-126.003-301.999c-82.662-82.667-182.665-124.002-299.998-124.002s-218 41.335-302 124.002c-82.667 83.998-124 184.666-124 301.999s41.334 217.333 124 300z" />
<glyph unicode="&#xe941;" d="M1003.985 447.983c0-265.101-226.897-492.002-492.002-492.002-265.1 0-491.999 226.901-491.999 492.002 0 94.319 27.602 194.014 74.602 268.218l-74.602 223.781 223.781-74.602c74.195 47 173.898 74.602 268.217 74.602 265.105 0 492.002-226.898 492.002-491.999z" />
<glyph unicode="&#xe942;" d="M612.002 248v-80h-200.002v80h40.002v200h-40.002v80h159.998v-280h40.004z" />
<glyph unicode="&#xe943;" d="M571.998 668c0-33.14-26.859-60-59.998-60-33.135 0-59.998 26.86-59.998 60 0 33.133 26.863 60 59.998 60 33.139 0 59.998-26.867 59.998-60z" />
<glyph unicode="&#xe944;" d="M824 688c0-11.039 8.96-20 19.998-20 11.042 0 20.002 8.961 20.002 20s-8.96 20-20.002 20c-11.038 0-19.998-8.961-19.998-20z" />
<glyph unicode="&#xe945;" d="M904 448c0-25.617-2.573-51.187-7.633-75.998-2.21-10.82 4.774-21.385 15.595-23.595 1.348-0.282 2.692-0.414 4.023-0.414 9.301 0 17.638 6.537 19.575 16.009 5.602 27.443 8.439 55.701 8.439 83.998 0 62.976-13.658 123.579-40.602 180.126-4.749 9.969-16.683 14.203-26.658 9.453s-14.204-16.687-9.451-26.664c24.358-51.125 36.71-105.938 36.71-162.915z" />
<glyph unicode="&#xe946;" d="M612.002 267.998h-20.002v260.002c0 11.047-8.951 20-20.002 20h-159.998c-11.047 0-20-8.953-20-20v-80c0-11.046 8.953-20.002 20-20.002h20v-160h-20c-11.047 0-20-8.951-20-19.998v-80c0-11.046 8.953-19.998 20-19.998h200.002c11.046 0 19.998 8.951 19.998 19.998v80c0 11.046-8.951 19.998-19.998 19.998zM592 187.998h-160v40.004h20.002c11.046 0 19.998 8.951 19.998 19.998v200c0 11.046-8.951 20.002-19.998 20.002h-20.002v39.996h120v-259.998c0-11.046 8.96-19.998 19.998-19.998h20.002v-40.004z" />
<glyph unicode="&#xe947;" d="M512 588c44.109 0 80 35.891 80 80s-35.891 80-80 80c-44.109 0-80-35.891-80-80s35.891-80 80-80zM512 708c22.054 0 40-17.945 40-40s-17.946-40-40-40c-22.054 0-40 17.945-40 40s17.946 40 40 40z" />
<glyph unicode="&#xe948;" d="M1023.983 448c0 275.952-235.601 511.999-512 511.999-94.413 0-194.819-27.055-270.764-72.672l-214.914 71.649c-7.18 2.391-15.109 0.523-20.461-4.836-5.383-5.383-7.219-13.32-4.828-20.469l71.641-214.914c-45.625-75.938-72.672-176.344-72.672-270.757 0-276.023 235.633-512 511.999-512 276.023 0 512 235.622 512 512zM39.984 448c0 90.569 26.727 186.835 71.492 257.515 3.172 5.008 4.008 11.25 2.078 17.031l-51.151 153.446c-4.448 13.342 8.246 26.036 21.588 21.588l153.446-51.151c5.703-1.906 11.953-1.141 17.031 2.078 70.672 44.766 166.945 71.492 257.514 71.492 255.855 0 472-216.148 472-471.999s-216.145-472-472-472c-255.85 0-471.999 216.149-471.999 472z" />
<glyph unicode="&#xe949;" d="M512 940c265.101 0 491.998-226.898 491.998-492s-226.897-492.002-491.998-492.002c-94.32 0-194.016 27.605-268.219 74.603l-223.781-74.598 74.601 223.778c-47 74.197-74.601 173.901-74.601 268.22 0 265.102 226.898 492 492 492z" />
<glyph unicode="&#xe94a;" d="M612.002 248v-80h-200.002v80h40.002v200h-40.002v80h159.998v-280h40.004z" />
<glyph unicode="&#xe94b;" d="M571.998 668c0-33.14-26.859-60-59.998-60-33.135 0-59.998 26.86-59.998 60 0 33.133 26.863 60 59.998 60 33.139 0 59.998-26.867 59.998-60z" />
<glyph unicode="&#xe94c;" d="M824 688c0-11.039 8.96-20 19.998-20 11.042 0 20.002 8.961 20.002 20s-8.96 20-20.002 20c-11.038 0-19.998-8.961-19.998-20z" />
<glyph unicode="&#xe94d;" d="M904 448c0-25.617-2.573-51.187-7.633-75.998-2.21-10.82 4.774-21.385 15.595-23.595 1.348-0.282 2.692-0.414 4.023-0.414 9.301 0 17.638 6.537 19.575 16.009 5.602 27.443 8.439 55.701 8.439 83.998 0 62.976-13.658 123.579-40.602 180.126-4.749 9.969-16.683 14.203-26.658 9.453s-14.204-16.687-9.451-26.664c24.358-51.125 36.71-105.938 36.71-162.915z" />
<glyph unicode="&#xe94e;" d="M612.002 267.998h-20.002v260.002c0 11.047-8.951 20-20.002 20h-159.998c-11.047 0-20-8.953-20-20v-80c0-11.046 8.953-20.002 20-20.002h20v-160h-20c-11.047 0-20-8.951-20-19.998v-80c0-11.046 8.953-19.998 20-19.998h200.002c11.046 0 19.998 8.951 19.998 19.998v80c0 11.046-8.951 19.998-19.998 19.998zM592 187.998h-160v40.004h20.002c11.046 0 19.998 8.951 19.998 19.998v200c0 11.046-8.951 20.002-19.998 20.002h-20.002v39.996h120v-259.998c0-11.046 8.96-19.998 19.998-19.998h20.002v-40.004z" />
<glyph unicode="&#xe94f;" d="M512 588c44.109 0 80 35.891 80 80s-35.891 80-80 80c-44.109 0-80-35.891-80-80s35.891-80 80-80zM512 708c22.054 0 40-17.945 40-40s-17.946-40-40-40c-22.054 0-40 17.945-40 40s17.946 40 40 40z" />
<glyph unicode="&#xe950;" d="M511.979 960c-275.952 0-511.999-235.601-511.999-512 0-94.413 27.055-194.82 72.672-270.767l-71.649-214.912c-2.391-7.181-0.523-15.108 4.836-20.463 5.383-5.38 13.32-7.219 20.469-4.826l214.914 71.637c75.938-45.623 176.344-72.67 270.757-72.67 276.023 0 512 235.631 512 512 0 276.023-235.622 512-512 512zM511.979-24c-90.569 0-186.835 26.726-257.514 71.492-5.008 3.17-11.25 4.006-17.031 2.078l-153.446-51.149c-13.342-4.45-26.036 8.243-21.588 21.585l51.151 153.446c1.906 5.705 1.14 11.955-2.078 17.033-44.765 70.669-71.492 166.946-71.492 257.515 0 255.852 216.148 472 471.999 472 255.855 0 472-216.148 472-472s-216.145-472-472-472z" />
<glyph unicode="&#xe951;" glyph-name="tune" d="M725.333 618.667c0-23.467-19.2-42.667-42.667-42.667s-42.667 19.2-42.667 42.667v170.667c0 23.467 19.2 42.667 42.667 42.667s42.667-19.2 42.667-42.667v-42.667h128c23.467 0 42.667-19.2 42.667-42.667s-19.2-42.667-42.667-42.667h-128v-42.667zM170.667 661.333c-23.467 0-42.667 19.2-42.667 42.667s19.2 42.667 42.667 42.667h384v-85.333h-384zM170.667 149.333c-23.467 0-42.667 19.2-42.667 42.667s19.2 42.667 42.667 42.667h213.333v-85.333h-213.333zM554.667 106.667v42.667h298.667c23.467 0 42.667 19.2 42.667 42.667s-19.2 42.667-42.667 42.667h-298.667v42.667c0 23.467-19.2 42.667-42.667 42.667s-42.667-19.2-42.667-42.667v-170.667c0-23.467 19.2-42.667 42.667-42.667s42.667 19.2 42.667 42.667zM298.667 490.667v42.667c0 23.467 19.2 42.667 42.667 42.667s42.667-19.2 42.667-42.667v-170.667c0-23.467-19.2-42.667-42.667-42.667s-42.667 19.2-42.667 42.667v42.667h-128c-23.467 0-42.667 19.2-42.667 42.667s19.2 42.667 42.667 42.667h128zM896 448c0 23.467-19.2 42.667-42.667 42.667h-384v-85.333h384c23.467 0 42.667 19.2 42.667 42.667z" />
<glyph unicode="&#xe952;" glyph-name="usuario" d="M942.933 448c0 238.17-192.738 430.933-430.933 430.933-238.17 0-430.933-192.737-430.933-430.933 0-236.058 191.118-430.933 430.933-430.933 238.827 0 430.933 193.788 430.933 430.933zM512 820.4c205.338 0 372.399-167.061 372.399-372.4 0-73.314-21.278-143.838-60.809-204.028-169.216 177.6-453.666 177.916-623.181 0-39.531 60.19-60.809 130.714-60.809 204.028 0 205.339 167.061 372.4 372.4 372.4zM236.768 197.171c147.489 162.129 403.014 162.091 550.457 0-147.968-162.274-402.426-162.325-550.457 0zM512 401.067c96.311 0 174.933 75.593 174.933 168.838v54.857c0 93.244-78.622 168.838-174.933 168.838-96.313 0-174.933-75.594-174.933-168.838v-54.857c0-93.245 78.621-168.838 174.933-168.838zM402.489 624.762c0 57.999 48.98 105.448 109.511 105.448s109.513-47.449 109.513-105.448v-54.857c0-57.999-48.981-105.448-109.513-105.448s-109.511 47.45-109.511 105.448v54.857z" />
<glyph unicode="&#xe953;" glyph-name="usuario2" d="M512 708.267c49.493 0 89.6-40.107 89.6-89.6s-40.107-89.6-89.6-89.6c-49.493 0-89.6 40.107-89.6 89.6s40.107 89.6 89.6 89.6zM512 324.267c126.72 0 260.267-62.293 260.267-89.6v-46.933h-520.533v46.933c0 27.307 133.547 89.6 260.267 89.6zM512 789.333c-94.293 0-170.667-76.373-170.667-170.667s76.373-170.667 170.667-170.667c94.293 0 170.667 76.373 170.667 170.667s-76.373 170.667-170.667 170.667zM512 405.333c-113.92 0-341.333-57.173-341.333-170.667v-85.333c0-23.467 19.2-42.667 42.667-42.667h597.333c23.467 0 42.667 19.2 42.667 42.667v85.333c0 113.493-227.413 170.667-341.333 170.667z" />
<glyph unicode="&#xe954;" glyph-name="Vector" horiz-adv-x="1126" d="M115.867 761.622c0-225.43-115.867-380.237-115.867-488.863 0-108.624 61.96-336.759 557.8-336.759s568.6 306.906 568.6 426.385c0.032 559.485-1010.533 798.473-1010.533 399.237z" />
<glyph unicode="&#xe955;" glyph-name="view" d="M320 469.333h-128c-23.467 0-42.667 19.2-42.667 42.667v170.667c0 23.467 19.2 42.667 42.667 42.667h128c23.467 0 42.667-19.2 42.667-42.667v-170.667c0-23.467-19.2-42.667-42.667-42.667zM320 170.667h-128c-23.467 0-42.667 19.2-42.667 42.667v170.667c0 23.467 19.2 42.667 42.667 42.667h128c23.467 0 42.667-19.2 42.667-42.667v-170.667c0-23.467-19.2-42.667-42.667-42.667zM448 170.667h128c23.467 0 42.667 19.2 42.667 42.667v170.667c0 23.467-19.2 42.667-42.667 42.667h-128c-23.467 0-42.667-19.2-42.667-42.667v-170.667c0-23.467 19.2-42.667 42.667-42.667zM832 170.667h-128c-23.467 0-42.667 19.2-42.667 42.667v170.667c0 23.467 19.2 42.667 42.667 42.667h128c23.467 0 42.667-19.2 42.667-42.667v-170.667c0-23.467-19.2-42.667-42.667-42.667zM448 469.333h128c23.467 0 42.667 19.2 42.667 42.667v170.667c0 23.467-19.2 42.667-42.667 42.667h-128c-23.467 0-42.667-19.2-42.667-42.667v-170.667c0-23.467 19.2-42.667 42.667-42.667zM661.333 512v170.667c0 23.467 19.2 42.667 42.667 42.667h128c23.467 0 42.667-19.2 42.667-42.667v-170.667c0-23.467-19.2-42.667-42.667-42.667h-128c-23.467 0-42.667 19.2-42.667 42.667z" />
<glyph unicode="&#xe956;" glyph-name="add" d="M512 874.667c-235.52 0-426.667-191.147-426.667-426.667s191.147-426.667 426.667-426.667c235.52 0 426.667 191.147 426.667 426.667s-191.147 426.667-426.667 426.667zM725.333 405.333h-170.667v-170.667h-85.333v170.667h-170.667v85.333h170.667v170.667h85.333v-170.667h170.667v-85.333z" />
<glyph unicode="&#xe957;" glyph-name="arrow_back" d="M801.758 490.453h-476.585l208.212 208.214c16.64 16.64 16.64 43.947 0 60.587-7.97 7.989-18.79 12.479-30.080 12.479-11.285 0-22.106-4.49-30.080-12.479l-281.172-281.174c-16.64-16.64-16.64-43.52 0-60.16l281.172-281.173c16.64-16.64 43.52-16.64 60.16 0s16.64 43.52 0 60.16l-208.212 208.213h476.585c23.467 0 42.667 19.2 42.667 42.667s-19.2 42.667-42.667 42.667z" />
<glyph unicode="&#xe958;" glyph-name="arrow_down" d="M298.667 554.667l213.333-213.333 213.333 213.333h-426.667z" />
<glyph unicode="&#xe959;" glyph-name="avisos-filled" d="M641.387 799.294l0.004-0.001c8.235-4.201 14.481-11.504 17.34-20.31l175.211-539.235c5.956-18.33-4.083-38.016-22.409-43.968l-119.211-38.737c-3.507-1.139-7.151-1.707-10.778-1.707l-40.158 643.957zM641.387 799.294c-8.252 4.206-17.826 4.954-26.628 2.094v0l-119.206-38.737c-18.325-5.955-28.365-25.638-22.404-43.967l168.239 80.61zM703.94 234.202l52.838 17.173-153.638 472.862-52.838-17.172 153.638-472.864zM703.94 234.202l-1.455 4.48c-0.026 0.077-0.051 0.166-0.081 0.26l1.536-4.74zM648.354 179.452c2.859-8.806 9.097-16.111 17.348-20.314l-627.727 243.699 72.676-223.633c4.795-14.754 18.479-24.119 33.179-24.119 3.585 0 7.22 0.559 10.79 1.715h0.002l118.613 38.545 55.358-0.29c14.802-58.624 67.961-102.153 131.134-102.153 62.682 0 115.473 42.854 130.761 100.774l53.338-0.282 4.527-13.943zM166.237 233.963l-51.103 157.261 57.596 18.714 51.096-157.261-57.589-18.714zM459.725 162.692c-23.834 0-44.733 12.83-56.178 31.966l112.033-0.589c-11.52-18.816-32.256-31.377-55.855-31.377zM621.103 263.305l-327.915 1.728-57.079 175.676 264.273 194.116 120.721-371.52zM745.698 632.789l-0.004 0.001c-17.169 8.752-23.991 29.767-15.236 46.939l15.241-46.941zM745.698 632.789c5.065-2.581 10.479-3.808 15.821-3.808 12.681 0 24.943 6.951 31.108 19.056 0 0 0 0 0.004 0l51.14 100.337c8.755 17.169 1.929 38.185-15.241 46.937v0c-17.165 8.746-38.182 1.932-46.933-15.243 0 0 0 0 0 0l-51.14-100.337 15.241-46.941zM965.662 373.235v0c17.173-8.751 24.004-29.76 15.253-46.933 0 0 0 0 0 0l-5.705 2.91c-5.035-9.882-15.040-15.569-25.412-15.569-4.352 0-8.764 1.003-12.911 3.11l28.774 56.482zM965.662 373.235l-100.356 51.119c-17.169 8.742-38.178 1.92-46.929-15.253l147.285-35.866zM812.557 530.854v0c4.796-14.754 18.479-24.119 33.178-24.119 3.584 0 7.219 0.559 10.79 1.715v0l107.098 34.804c18.321 5.955 28.356 25.639 22.396 43.971-5.956 18.337-25.643 28.343-43.964 22.404l-0.009-0.001-107.093-34.802c-18.321-5.96-28.352-25.644-22.396-43.971z" />
<glyph unicode="&#xe95a;" glyph-name="back" d="M724.16 832.427c-20.907 20.907-54.613 20.907-75.52 0l-354.561-354.56c-16.64-16.64-16.64-43.52 0-60.16l354.561-354.56c20.907-20.907 54.613-20.907 75.52 0s20.907 54.613 0 75.52l-308.908 309.333 309.334 309.333c20.48 20.48 20.48 54.613-0.427 75.093z" />
<glyph unicode="&#xe95b;" glyph-name="block" d="M512 874.667c-235.52 0-426.667-191.147-426.667-426.667s191.147-426.667 426.667-426.667c235.52 0 426.667 191.147 426.667 426.667s-191.147 426.667-426.667 426.667zM170.667 448c0 188.587 152.747 341.333 341.333 341.333 78.933 0 151.467-26.88 209.067-72.107l-478.293-478.293c-45.227 57.6-72.107 130.133-72.107 209.067zM302.933 178.773l478.293 478.293c45.227-57.6 72.107-130.133 72.107-209.067 0-188.587-152.747-341.333-341.333-341.333-78.933 0-151.467 26.88-209.067 72.107z" />
<glyph unicode="&#xe95c;" glyph-name="buscar" d="M661.333 362.667h-33.707l-11.947 11.52c51.2 59.733 77.653 141.227 63.147 227.84-20.053 118.613-119.040 213.333-238.507 227.84-180.48 22.187-332.372-129.707-310.186-310.187 14.507-119.467 109.227-218.453 227.84-238.507 86.612-14.507 168.106 11.947 227.839 63.147l11.52-11.947v-33.707l181.333-181.333c17.493-17.493 46.080-17.493 63.573 0s17.493 46.080 0 63.573l-180.907 181.76zM405.334 362.667c-106.24 0-192 85.76-192 192s85.76 192 192 192c106.239 0 191.999-85.76 191.999-192s-85.76-192-191.999-192z" />
<glyph unicode="&#xe95d;" glyph-name="link" d="M624.794 560.87c-12.13 12.202-25.579 23.018-40.099 32.25-38.457 24.626-83.165 37.711-128.831 37.711-63.383 0.118-124.19-25.065-168.93-69.961l-217.049-217.219c-44.664-44.75-69.767-105.381-69.807-168.606-0.084-131.936 106.801-238.959 238.737-239.043 63.285-0.22 124.036 24.844 168.76 69.619l179.168 179.168c3.255 3.227 5.073 7.631 5.047 12.214-0.054 9.424-7.739 17.019-17.163 16.965h-6.825c-37.433-0.132-74.533 7.057-109.206 21.158-6.389 2.63-13.732 1.146-18.599-3.753l-128.831-129.001c-40.005-40.005-104.865-40.005-144.87 0s-40.005 104.865 0 144.87l217.903 217.731c39.973 39.923 104.727 39.923 144.7 0 26.939-25.353 68.96-25.353 95.897 0 11.59 11.6 18.617 26.985 19.794 43.342 1.246 19.546-5.963 38.689-19.796 52.555zM953.951 890.027c-93.297 93.297-244.562 93.297-337.859 0l-178.998-178.826c-4.915-4.939-6.333-12.368-3.583-18.771 2.718-6.421 9.068-10.542 16.039-10.408h6.313c37.389 0.068 74.429-7.177 109.036-21.33 6.389-2.63 13.732-1.146 18.599 3.753l128.489 128.319c40.005 40.005 104.865 40.005 144.87 0s40.005-104.865 0-144.87l-160.057-159.885-1.366-1.536-55.968-55.628c-39.973-39.923-104.727-39.923-144.7 0-26.939 25.353-68.96 25.353-95.897 0-11.664-11.688-18.697-27.207-19.794-43.682-1.248-19.546 5.961-38.689 19.794-52.557 19.75-19.834 42.858-36.010 68.254-47.777 3.583-1.706 7.167-3.071 10.75-4.607s7.337-2.73 10.92-4.095c3.583-1.366 7.337-2.56 10.92-3.583l10.068-2.73c6.825-1.706 13.652-3.071 20.646-4.265 8.426-1.252 16.913-2.050 25.425-2.39h12.968l10.238 1.194c3.753 0.17 7.679 1.024 12.116 1.024h5.801l11.774 1.706 5.461 1.024 9.896 2.048h1.878c41.914 10.528 80.188 32.23 110.742 62.795l217.219 217.219c93.303 93.297 93.303 244.562 0.006 337.859z" />
<glyph unicode="&#xe95e;" glyph-name="descargar" d="M810.667 576h-170.667v256h-256v-256h-170.667l298.667-298.667 298.667 298.667zM213.333 192v-85.333h597.333v85.333h-597.333z" />
<glyph unicode="&#xe95f;" glyph-name="dni" d="M793.6 588.802h-243.2c-17.067 0-29.867-12.8-29.867-29.867s12.8-29.869 29.867-29.869h243.2c17.067 0 29.867 12.802 29.867 29.869s-12.8 29.867-29.867 29.867zM763.733 477.871h-213.333c-17.067 0-29.867-12.8-29.867-29.867s12.8-29.867 29.867-29.867h213.333c17.067 0 29.867 12.8 29.867 29.867s-12.8 29.867-29.867 29.867zM695.467 375.467h-145.067c-17.067 0-29.867-12.8-29.867-29.867s12.8-29.867 29.867-29.867h145.067c17.067 0 29.867 12.8 29.867 29.867s-12.8 29.867-29.867 29.867zM409.602 460.8c8.533 12.8 12.8 29.867 12.8 46.933 0 51.199-42.667 93.866-93.867 93.866s-93.867-42.667-93.867-93.866c0-17.067 4.267-34.133 12.8-46.933-38.4-21.333-64-59.733-64-106.667v-51.2c0-8.533 4.267-17.067 17.067-17.067h255.998c8.533 0 17.067 4.267 17.067 17.067v51.2c0 42.667-25.6 85.333-63.998 106.667zM328.535 473.6c-17.067 0-34.133 12.8-34.133 34.133 0 17.067 12.8 34.132 34.133 34.132 17.067 0 34.133-12.799 34.133-34.132-4.267-17.067-17.067-34.133-34.133-34.133zM409.602 354.133v-4.267h-162.133v4.267c0 34.133 25.6 59.733 59.733 59.733h46.933c29.867 0 55.467-25.6 55.467-59.733zM891.733 768h-759.467c-38.4 0-68.267-29.867-68.267-68.267v-503.467c0-38.4 29.867-68.267 68.267-68.267h763.733c38.4 0 68.267 29.867 68.267 68.267v503.467c-4.267 38.4-34.133 68.267-72.533 68.267zM874.667 247.467c0-17.067-17.067-34.133-34.133-34.133h-657.067c-17.067 0-34.133 17.067-34.133 34.133v401.067c0 17.067 17.067 34.133 34.133 34.133h661.333c17.067 0 34.133-17.067 34.133-34.133v-401.067h-4.267z" />
<glyph unicode="&#xe960;" horiz-adv-x="1126" d="M116.053 763.733c0-223.573-116.053-375.467-116.053-482.987s61.44-332.8 556.373-332.8c494.933 0 566.613 303.787 566.613 421.547 0 552.96-1006.933 788.48-1006.933 394.24z" />
<glyph unicode="&#xe961;" horiz-adv-x="1126" d="M779.947 425.813c13.653-23.893-3.413-52.907-29.013-54.613-98.987-3.413-199.68-29.013-293.547-76.8l-34.133-17.067c0 0 0 0 76.8-131.413 6.827-11.947 3.413-27.307-8.533-34.133l-25.6-13.653c-11.947-6.827-27.307-3.413-34.133 8.533l-76.8 131.413-11.947-6.827c-23.893-13.653-54.613-5.12-69.973 18.773l-56.32 98.987c-13.653 23.893-5.12 54.613 18.773 69.973l112.64 64.853c85.333 56.32 158.72 129.707 213.333 216.747 13.653 22.187 47.787 22.187 61.44-1.707l49.493-85.333c27.307 17.067 64.853 6.827 80.213-22.187 17.067-27.307 6.827-64.853-22.187-80.213l49.493-85.333z" />
<glyph unicode="&#xe962;" horiz-adv-x="1126" d="M752.64 591.36c17.067-27.307 6.827-64.853-22.187-80.213l-58.027 102.4c27.307 15.36 63.147 5.12 80.213-22.187z" />
<glyph unicode="&#xe963;" horiz-adv-x="1126" d="M622.933 697.173c6.827-11.947 6.827-25.6-1.707-37.547-59.733-90.453-141.653-172.373-238.933-237.227l-131.413-76.8c-8.533-5.12-17.067-11.947-20.48-20.48l-11.947 22.187c-13.653 23.893-5.12 54.613 18.773 69.973l112.64 64.853c85.333 56.32 158.72 129.707 213.333 216.747 11.947 22.187 46.080 22.187 59.733-1.707z" />
<glyph unicode="&#xe964;" horiz-adv-x="1126" d="M346.452 482.133l107.52-187.733c-22.187-11.947-90.453-52.907-112.64-64.853-23.893-13.653-54.613-5.12-69.973 18.773l-56.32 98.987c-13.653 23.893-5.12 54.613 18.773 69.973l112.64 64.853z" />
<glyph unicode="&#xe965;" horiz-adv-x="1126" d="M382.293 422.4c-143.36-83.627-133.12-76.8-138.24-80.213-8.533-6.827-22.187-3.413-27.307 5.12-13.653 23.893-5.12 54.613 18.773 69.973l112.64 64.853 34.133-59.733z" />
<glyph unicode="&#xe966;" horiz-adv-x="1126" d="M443.733 241.493c-40.96-23.893-10.24-6.827-68.267-39.253l-20.48 35.84 68.267 39.253 20.48-35.84z" />
<glyph unicode="&#xe967;" horiz-adv-x="1126" d="M744.107 524.8c-5.12-6.827-10.24-11.947-18.773-15.36l-58.027 102.4c6.827 3.413 15.36 6.827 22.187 6.827 3.413-6.827 52.907-90.453 54.613-93.867z" />
<glyph unicode="&#xe968;" horiz-adv-x="1126" d="M745.813 507.733c44.373 35.84 29.013 107.52-25.6 121.173-13.653 3.413-29.013 3.413-42.667-1.707l-44.373 75.093c-17.067 30.72-61.44 32.427-80.213 1.707-54.613-85.333-126.293-157.013-211.627-211.627-5.12-3.413-6.827-10.24-3.413-15.36l73.387-126.293c3.413-5.12 10.24-6.827 15.36-3.413s6.827 10.24 3.413 15.36l-68.267 117.76c81.92 54.613 153.6 126.293 208.213 213.333 10.24 15.36 32.427 15.36 42.667 0l157.013-271.36c8.533-15.36-1.707-35.84-20.48-37.547-104.107-3.413-206.507-30.72-298.667-78.507 0 0-105.813-61.44-112.64-64.853-18.773-10.24-42.667-5.12-54.613 13.653l-56.32 98.987c-10.24 18.773-5.12 42.667 13.653 54.613l68.267 39.253c5.12 3.413 6.827 10.24 3.413 15.36s-10.24 6.827-15.36 3.413l-68.267-39.253c-29.013-17.067-39.253-54.613-22.187-85.333l56.32-98.987c17.067-29.013 54.613-39.253 85.333-22.187l3.413 1.707 69.973-122.88c10.24-17.067 32.427-23.893 49.493-13.653l25.6 13.653c17.067 10.24 23.893 32.427 13.653 49.493l-49.493 87.040c-3.413 5.12-10.24 6.827-15.36 3.413s-6.827-10.24-3.413-15.36l49.493-87.040c3.413-6.827 1.707-15.36-5.12-18.773l-25.6-13.653c-6.827-3.413-15.36-1.707-18.773 5.12l-69.973 122.88 90.453 52.907c88.747 44.373 186.027 71.68 290.133 75.093 35.84 1.707 56.32 39.253 39.253 69.973l-46.080 76.8zM742.4 584.533c11.947-18.773 6.827-42.667-8.533-58.027l-46.080 80.213c20.48 6.827 42.667-1.707 54.613-22.187zM851.627 635.733l-29.013-17.067c-5.12-3.413-11.947-1.707-15.36 3.413s-1.707 11.947 3.413 15.36l29.013 17.067c5.12 3.413 11.947 1.707 15.36-3.413 5.12-5.12 3.413-11.947-3.413-15.36zM727.040 700.587l6.827 27.307c1.707 6.827 8.533 10.24 13.653 8.533 6.827-1.707 10.24-8.533 8.533-13.653l-6.827-27.307c-1.707-6.827-8.533-10.24-13.653-8.533-6.827 0-10.24 6.827-8.533 13.653zM873.813 514.56c-1.707-5.12-5.12-8.533-10.24-8.533-1.707 0 0 0-29.013 6.827-6.827 1.707-10.24 8.533-8.533 13.653 1.707 6.827 8.533 10.24 13.653 8.533l27.307-6.827c5.12-1.707 8.533-6.827 6.827-13.653z" />
<glyph unicode="&#xe969;" glyph-name="documento" d="M341.333 277.333h341.333v-85.333h-341.333v85.333zM341.333 448h341.333v-85.333h-341.333v85.333zM597.333 874.667h-341.333c-46.933 0-85.333-38.4-85.333-85.333v-682.667c0-46.933 37.973-85.333 84.907-85.333h512.427c46.933 0 85.333 38.4 85.333 85.333v512l-256 256zM768 106.667h-512v682.667h298.667v-213.333h213.333v-469.333z" />
<glyph unicode="&#xe96a;" glyph-name="done" d="M384 268.8l-149.333 149.333c-16.64 16.64-43.093 16.64-59.733 0s-16.64-43.093 0-59.733l178.773-178.773c16.64-16.64 43.52-16.64 60.16 0l452.267 451.84c16.64 16.64 16.64 43.093 0 59.733s-43.093 16.64-59.733 0l-422.4-422.4z" />
<glyph unicode="&#xe96b;" glyph-name="down" d="M143.459 635.659c-20.611-20.437-20.611-53.387 0-73.824l349.555-346.595c16.401-16.269 42.906-16.269 59.307 0l349.555 346.595c20.612 20.437 20.612 53.387 0 73.824s-53.841 20.437-74.453 0l-304.964-301.967-304.966 302.384c-20.191 20.020-53.842 20.020-74.033-0.417z" />
<glyph unicode="&#xe96c;" glyph-name="revisar" d="M635.115 860.975v0l-0.047 0.051c-4.651 5.257-11.396 8.586-18.509 8.586h-338.255c-42.845 0-77.771-34.743-77.771-77.771v-715.644c0-42.846 34.743-77.773 77.771-77.773h466.716c42.846 0 77.773 34.743 77.773 77.773v556.725c0 5.728-2.031 11.513-5.995 15.919l-181.683 212.133zM262.663 791.842c0 7.559 6.116 15.641 15.641 15.641h295.704v-140.020c0-42.851 34.923-77.771 77.773-77.771h108.881v-513.494c0-7.561-6.114-15.642-15.642-15.642h-466.716c-7.559 0-15.641 6.114-15.641 15.642v715.644zM636.139 667.463v98.013l97.246-113.824h-81.562c-3.209 0.071-7.172 2.010-10.479 5.335-3.324 3.339-5.205 7.297-5.205 10.476zM449.472 278.515h-0.013c-50.54-0.162-93.384 42.662-93.384 93.402 0 50.56 42.839 93.397 93.396 93.397 50.56 0 93.402-42.837 93.402-93.397s-42.842-93.402-93.402-93.402zM449.472 216.388c30.127 0 58.253 8.674 85.389 26.505l158.822-158.822c4.39-4.39 11.345-4.39 15.731 0l27.904 27.904c4.39 4.39 4.39 11.345 0 15.731l-158.831 158.831c17.673 27.119 26.517 55.241 26.517 85.38 0 41.783-16.098 80.815-45.321 110.042-29.227 29.222-68.429 45.316-110.042 45.316-41.611 0-80.814-16.094-110.039-45.316-29.225-29.227-45.318-68.429-45.318-110.042 0-41.788 16.095-80.819 45.318-110.042 29.213-29.214 68.24-45.487 109.868-45.487z" />
<glyph unicode="&#xe96d;" glyph-name="save" d="M750.507 806.827c-16.213 16.213-37.973 25.173-60.587 25.173h-476.587c-47.36 0-85.333-38.4-85.333-85.333v-597.333c0-46.933 38.4-85.333 85.333-85.333h597.333c46.933 0 85.333 38.4 85.333 85.333v476.587c0 22.613-8.96 44.373-25.173 60.16l-120.32 120.747zM512 149.333c-70.827 0-128 57.173-128 128s57.173 128 128 128c70.827 0 128-57.173 128-128s-57.173-128-128-128zM298.667 576c-46.933 0-85.333 38.4-85.333 85.333s38.4 85.333 85.333 85.333h256c46.933 0 85.333-38.4 85.333-85.333s-38.4-85.333-85.333-85.333h-256z" />
<glyph unicode="&#x1f328;" glyph-name="dashboard" d="M947.793 131.631h-33.54v627.552c0 40.151-32.401 72.817-72.226 72.817h-90.927c-39.825 0-72.222-32.666-72.222-72.817v-627.552h-49.19v254.673c0 40.149-32.401 72.815-72.226 72.815h-90.927c-39.825 0-72.227-32.666-72.227-72.815v-254.673h-49.186v119.488c0 40.149-32.399 72.815-72.225 72.815h-90.927c-39.825 0-72.223-32.666-72.223-72.815v-119.488h-33.54c-18.523 0-33.54-15.142-33.54-33.818 0-18.671 15.017-33.813 33.54-33.813h871.586c18.522 0 33.54 15.142 33.54 33.813 0 18.675-15.019 33.818-33.54 33.818zM176.829 131.631v119.488c0 2.859 2.305 5.188 5.143 5.188h90.927c2.837 0 5.145-2.33 5.145-5.188v-119.488h-101.215zM461.389 131.631v254.673c0 2.859 2.308 5.184 5.146 5.184h90.927c2.837 0 5.146-2.325 5.146-5.184v-254.673h-101.218zM745.958 131.631v627.552c0 2.86 2.304 5.187 5.141 5.187h90.927c2.837 0 5.146-2.326 5.146-5.187v-627.552h-101.214z" />
</font>
</defs>
</svg>
